<svg xmlns="http://www.w3.org/2000/svg" xmlns:xlink="http://www.w3.org/1999/xlink" width="1080" zoomAndPan="magnify" viewBox="0 0 810 809.999993" height="1080" preserveAspectRatio="xMidYMid meet" version="1.0"><defs><clipPath id="9b89781b9d"><path d="M 400.511719 348.703125 L 434.578125 348.703125 L 434.578125 380.789062 L 400.511719 380.789062 Z M 400.511719 348.703125 " clip-rule="nonzero"/></clipPath></defs><path fill="#f9fafd" d="M 390.386719 372.976562 C 387.78125 372.976562 385.238281 373.992188 382.757812 376.027344 C 380.246094 378.09375 377.960938 381.050781 375.890625 384.894531 C 374.273438 388.007812 372.96875 391.222656 371.984375 394.492188 C 371 397.769531 370.425781 400.664062 370.296875 403.140625 C 370.171875 405.621094 370.550781 407.207031 371.441406 407.910156 C 371.667969 408.097656 372.015625 408.195312 372.523438 408.164062 C 373.03125 408.164062 373.703125 407.878906 374.492188 407.273438 C 374.746094 407.050781 374.875 406.859375 374.847656 406.636719 C 374.8125 406.417969 374.71875 406.289062 374.527344 406.191406 C 374.335938 406.097656 374.113281 406.164062 373.828125 406.351562 C 373.507812 406.605469 373.253906 406.765625 373.066406 406.828125 C 372.839844 406.925781 372.714844 406.925781 372.617188 406.894531 C 372.523438 406.859375 372.429688 406.828125 372.398438 406.796875 C 371.441406 405.9375 371.347656 403.332031 372.144531 399.042969 C 372.90625 394.75 374.527344 390.140625 377.035156 385.246094 C 377.578125 384.199219 378.277344 383.023438 379.136719 381.78125 C 379.992188 380.539062 380.949219 379.335938 382.0625 378.191406 C 383.171875 377.078125 384.382812 376.121094 385.746094 375.359375 C 387.082031 374.628906 388.511719 374.25 390.070312 374.25 C 391.597656 374.25 392.742188 374.882812 393.472656 376.121094 C 394.203125 377.363281 394.648438 379.015625 394.742188 381.019531 C 394.835938 383.054688 394.648438 385.277344 394.203125 387.691406 C 393.757812 390.140625 393.121094 392.558594 392.265625 394.972656 C 391.402344 397.417969 390.417969 399.644531 389.273438 401.679688 C 388.132812 403.714844 386.925781 405.335938 385.621094 406.574219 C 384.316406 407.816406 382.984375 408.453125 381.679688 408.453125 C 380.46875 408.453125 379.578125 407.941406 379.042969 406.925781 C 378.5 405.910156 378.214844 404.570312 378.179688 402.949219 C 378.152344 401.332031 378.308594 399.550781 378.660156 397.644531 C 379.007812 395.765625 379.484375 393.921875 380.089844 392.109375 C 380.695312 390.296875 381.332031 388.710938 382.0625 387.34375 C 382.757812 385.976562 383.460938 385.023438 384.15625 384.453125 C 384.410156 384.226562 384.539062 384.039062 384.507812 383.816406 C 384.476562 383.59375 384.382812 383.464844 384.1875 383.371094 C 384 383.277344 383.773438 383.335938 383.492188 383.53125 C 382.730469 384.164062 381.933594 385.246094 381.136719 386.738281 C 380.3125 388.234375 379.578125 389.980469 378.914062 391.949219 C 378.246094 393.921875 377.703125 395.925781 377.324219 397.992188 C 376.941406 400.058594 376.78125 401.996094 376.878906 403.746094 C 376.941406 405.527344 377.324219 406.953125 378.023438 408.070312 C 378.722656 409.179688 379.832031 409.75 381.332031 409.75 C 382.886719 409.75 384.445312 409.085938 385.9375 407.71875 C 387.433594 406.382812 388.832031 404.636719 390.132812 402.441406 C 391.402344 400.25 392.519531 397.863281 393.472656 395.257812 C 394.394531 392.652344 395.089844 390.042969 395.566406 387.4375 C 396.015625 384.835938 396.175781 382.449219 396.015625 380.257812 C 395.855469 378.0625 395.347656 376.316406 394.457031 374.976562 C 393.535156 373.644531 392.199219 372.976562 390.386719 372.976562 Z M 390.386719 372.976562 " fill-opacity="1" fill-rule="nonzero"/><path fill="#f9fafd" d="M 411.429688 394.71875 L 411.335938 394.78125 C 410.320312 395.542969 409.300781 396.210938 408.3125 396.816406 C 407.296875 397.417969 406.3125 397.707031 405.390625 397.707031 C 404.976562 397.707031 404.691406 397.578125 404.597656 397.355469 C 404.46875 397.136719 404.402344 396.6875 404.402344 396.085938 C 404.4375 395.738281 404.402344 395.382812 404.371094 395.003906 C 404.308594 394.652344 404.148438 394.335938 403.929688 394.082031 C 403.707031 393.828125 403.292969 393.703125 402.75 393.703125 C 401.957031 393.703125 401.097656 394.019531 400.175781 394.621094 C 399.257812 395.257812 398.332031 396.019531 397.410156 396.910156 C 397.699219 395.738281 398.113281 394.082031 398.648438 392.015625 C 399.191406 389.949219 399.765625 387.851562 400.335938 385.753906 C 400.8125 384.007812 401.257812 382.257812 401.734375 380.574219 C 401.800781 380.285156 401.734375 380.097656 401.574219 380.003906 C 401.386719 379.90625 401.164062 379.90625 400.9375 380.003906 C 400.71875 380.097656 400.558594 380.285156 400.460938 380.574219 C 399.988281 382.257812 399.511719 384.007812 399.03125 385.753906 C 397.824219 390.234375 396.996094 393.414062 396.519531 395.257812 C 396.046875 397.101562 395.855469 398.179688 395.886719 398.535156 C 395.917969 398.816406 396.078125 398.945312 396.363281 398.976562 C 396.648438 399.007812 396.902344 398.914062 397.15625 398.691406 C 397.378906 398.46875 397.632812 398.28125 397.886719 398.054688 C 398.746094 397.261719 399.574219 396.527344 400.367188 395.890625 C 401.164062 395.289062 401.828125 394.972656 402.402344 394.972656 C 402.691406 394.972656 402.878906 395.066406 402.972656 395.257812 C 403.070312 395.480469 403.101562 395.863281 403.070312 396.433594 C 403.070312 396.78125 403.101562 397.164062 403.164062 397.546875 C 403.226562 397.960938 403.386719 398.28125 403.675781 398.5625 C 403.960938 398.851562 404.402344 398.976562 405.074219 398.976562 C 406.21875 398.976562 407.394531 398.628906 408.566406 397.960938 C 409.746094 397.292969 410.890625 396.527344 412.03125 395.671875 C 412.289062 395.480469 412.414062 395.257812 412.414062 395.035156 C 412.382812 394.8125 412.289062 394.652344 412.128906 394.558594 C 411.9375 394.464844 411.71875 394.527344 411.429688 394.71875 Z M 411.429688 394.71875 " fill-opacity="1" fill-rule="nonzero"/><path fill="#f9fafd" d="M 420.679688 394.6875 C 419.503906 395.578125 418.359375 396.308594 417.277344 396.847656 C 416.164062 397.417969 415.019531 397.707031 413.78125 397.707031 C 413.019531 397.707031 412.507812 397.515625 412.253906 397.136719 C 411.96875 396.753906 411.9375 396.308594 412.160156 395.765625 C 412.320312 395.320312 412.542969 394.972656 412.828125 394.75 C 413.113281 394.527344 413.367188 394.367188 413.621094 394.304688 C 413.875 394.238281 414.066406 394.238281 414.164062 394.304688 C 414.257812 394.367188 414.257812 394.492188 414.128906 394.652344 C 413.90625 394.875 413.847656 395.101562 413.90625 395.289062 C 413.972656 395.480469 414.101562 395.609375 414.320312 395.636719 C 414.542969 395.671875 414.765625 395.578125 414.992188 395.355469 C 415.753906 394.464844 415.878906 393.796875 415.402344 393.347656 C 414.890625 392.9375 414.164062 392.875 413.210938 393.160156 C 412.253906 393.476562 411.492188 394.304688 410.921875 395.609375 C 410.574219 396.527344 410.601562 397.324219 411.050781 397.992188 C 411.492188 398.660156 412.289062 398.976562 413.433594 398.976562 C 414.890625 398.976562 416.261719 398.660156 417.5 398.023438 C 418.738281 397.390625 420.011719 396.59375 421.28125 395.636719 C 421.535156 395.417969 421.664062 395.226562 421.664062 395.003906 C 421.632812 394.78125 421.535156 394.621094 421.375 394.527344 C 421.1875 394.433594 420.964844 394.492188 420.679688 394.6875 Z M 420.679688 394.6875 " fill-opacity="1" fill-rule="nonzero"/><path fill="#f9fafd" d="M 424.300781 396.117188 C 423.984375 395.992188 423.792969 395.832031 423.699219 395.609375 C 423.601562 395.382812 423.574219 395.195312 423.667969 395.003906 C 423.761719 394.78125 423.886719 394.652344 424.046875 394.652344 C 424.207031 394.652344 424.300781 394.78125 424.398438 395.003906 C 424.460938 395.257812 424.429688 395.636719 424.300781 396.117188 Z M 430.628906 394.78125 C 428.972656 395.925781 427.261719 396.433594 425.507812 396.339844 C 425.859375 395.164062 425.859375 394.367188 425.445312 393.890625 C 425.03125 393.414062 424.492188 393.289062 423.855469 393.449219 C 423.21875 393.605469 422.746094 394.082031 422.429688 394.875 C 422.234375 395.355469 422.234375 395.832031 422.394531 396.273438 C 422.554688 396.753906 422.964844 397.101562 423.601562 397.324219 C 423.316406 397.609375 422.964844 397.769531 422.585938 397.769531 C 421.980469 397.769531 421.695312 397.484375 421.664062 396.941406 C 421.632812 396.402344 421.757812 395.796875 422.046875 395.195312 C 422.140625 394.90625 422.140625 394.6875 421.980469 394.558594 C 421.820312 394.433594 421.632812 394.398438 421.410156 394.433594 C 421.1875 394.492188 420.996094 394.652344 420.835938 394.941406 C 420.300781 396.246094 420.171875 397.261719 420.519531 397.992188 C 420.871094 398.722656 421.441406 399.070312 422.234375 399.070312 C 423.191406 399.070312 424.082031 398.5625 424.871094 397.578125 C 425.828125 397.671875 426.878906 397.578125 428.050781 397.292969 C 429.195312 397.007812 430.277344 396.464844 431.296875 395.703125 C 431.515625 395.480469 431.644531 395.289062 431.613281 395.066406 C 431.582031 394.847656 431.484375 394.71875 431.296875 394.621094 C 431.101562 394.527344 430.882812 394.59375 430.628906 394.78125 Z M 430.628906 394.78125 " fill-opacity="1" fill-rule="nonzero"/><path fill="#f9fafd" d="M 433.425781 401.394531 C 432.40625 402.28125 431.550781 402.792969 430.847656 402.917969 C 430.152344 403.046875 429.804688 402.984375 429.769531 402.695312 C 429.804688 402.378906 430.023438 402.027344 430.4375 401.648438 C 430.847656 401.265625 431.296875 400.882812 431.804688 400.535156 C 432.28125 400.1875 432.695312 399.898438 433.042969 399.707031 C 433.230469 399.933594 433.390625 400.214844 433.550781 400.535156 C 433.710938 400.851562 433.644531 401.136719 433.425781 401.394531 Z M 442.003906 394.464844 C 438.859375 395.542969 436.0625 396.753906 433.585938 398.121094 C 433.359375 397.898438 433.171875 397.671875 432.949219 397.449219 C 432.535156 397.070312 432.246094 396.722656 432.027344 396.433594 C 431.804688 396.085938 431.707031 395.765625 431.773438 395.511719 C 431.832031 395.257812 431.960938 395.035156 432.121094 394.875 C 432.46875 394.492188 432.949219 394.179688 433.550781 393.921875 C 434.121094 393.667969 434.628906 393.542969 435.078125 393.542969 C 435.492188 393.542969 435.679688 393.730469 435.617188 394.113281 C 435.554688 394.398438 435.617188 394.558594 435.808594 394.652344 C 435.96875 394.75 436.1875 394.75 436.410156 394.652344 C 436.636719 394.558594 436.792969 394.398438 436.890625 394.113281 C 437.113281 393.195312 436.859375 392.621094 436.1875 392.398438 C 435.519531 392.175781 434.695312 392.238281 433.710938 392.585938 C 432.722656 392.9375 431.867188 393.476562 431.167969 394.238281 C 430.3125 395.289062 430.183594 396.339844 430.847656 397.324219 C 431.136719 397.671875 431.453125 398.054688 431.867188 398.46875 C 432.027344 398.59375 432.152344 398.722656 432.28125 398.851562 C 431.453125 399.324219 430.628906 399.933594 429.832031 400.664062 C 429.007812 401.394531 428.53125 402.15625 428.433594 402.949219 C 428.433594 403.875 429.007812 404.285156 430.183594 404.253906 C 431.324219 404.222656 432.660156 403.554688 434.1875 402.222656 C 434.730469 401.679688 434.984375 401.136719 434.949219 400.566406 C 434.917969 400.027344 434.695312 399.484375 434.347656 399.007812 C 436.664062 397.769531 439.273438 396.65625 442.105469 395.671875 C 442.386719 395.578125 442.578125 395.382812 442.675781 395.164062 C 442.738281 394.941406 442.707031 394.71875 442.613281 394.558594 C 442.484375 394.398438 442.292969 394.367188 442.003906 394.464844 Z M 442.003906 394.464844 " fill-opacity="1" fill-rule="nonzero"/><path fill="#f9fafd" d="M 443.023438 392.746094 L 442.960938 392.746094 C 442.804688 392.714844 442.675781 392.652344 442.609375 392.492188 C 442.515625 392.363281 442.515625 392.207031 442.578125 392.050781 C 442.609375 391.921875 442.644531 391.792969 442.675781 391.695312 L 442.703125 391.695312 C 442.769531 391.441406 442.863281 391.160156 443.023438 390.871094 C 443.117188 390.710938 443.246094 390.550781 443.40625 390.457031 C 443.566406 390.363281 443.722656 390.332031 443.882812 390.363281 C 444.042969 390.394531 444.167969 390.492188 444.230469 390.617188 C 444.296875 390.777344 444.296875 390.933594 444.203125 391.09375 L 443.949219 391.792969 L 443.820312 392.175781 C 443.753906 392.332031 443.660156 392.492188 443.5 392.585938 C 443.339844 392.683594 443.183594 392.746094 443.023438 392.746094 Z M 449.253906 394.847656 C 447.0625 396.847656 445.28125 397.800781 443.949219 397.671875 C 443.277344 397.578125 442.898438 397.261719 442.832031 396.65625 C 442.769531 396.050781 442.863281 395.320312 443.152344 394.433594 C 443.214844 394.082031 443.152344 393.859375 442.992188 393.765625 C 442.832031 393.667969 442.609375 393.667969 442.390625 393.765625 C 442.132812 393.859375 441.941406 394.082031 441.847656 394.433594 C 441.59375 395.289062 441.464844 396.085938 441.464844 396.753906 C 441.464844 397.417969 441.660156 397.960938 442.007812 398.375 C 442.355469 398.789062 442.992188 398.976562 443.882812 398.976562 C 445.566406 398.976562 447.632812 397.863281 450.019531 395.671875 C 450.238281 395.449219 450.332031 395.226562 450.304688 395.003906 C 450.273438 394.8125 450.144531 394.6875 449.953125 394.621094 C 449.730469 394.558594 449.507812 394.621094 449.253906 394.847656 Z M 449.253906 394.847656 " fill-opacity="1" fill-rule="nonzero"/><path fill="#f9fafd" d="M 471.820312 383.148438 L 453.796875 383.148438 C 454.339844 381.082031 454.941406 378.859375 455.578125 376.441406 C 455.644531 376.15625 455.578125 375.964844 455.417969 375.867188 C 455.230469 375.773438 455.007812 375.773438 454.78125 375.867188 C 454.5625 375.964844 454.402344 376.15625 454.308594 376.441406 C 453.636719 378.859375 453.035156 381.082031 452.492188 383.148438 L 444.007812 383.148438 C 443.722656 383.148438 443.53125 383.242188 443.40625 383.464844 C 443.246094 383.691406 443.183594 383.878906 443.214844 384.101562 C 443.246094 384.324219 443.371094 384.421875 443.597656 384.421875 L 452.144531 384.421875 C 451.542969 386.738281 450.96875 388.835938 450.460938 390.710938 C 448.394531 398.152344 447.1875 402.824219 446.835938 404.699219 C 446.679688 405.554688 446.648438 406.257812 446.742188 406.796875 C 446.835938 407.367188 447.25 407.65625 447.980469 407.65625 C 448.269531 407.65625 448.492188 407.5625 448.652344 407.335938 C 448.808594 407.113281 448.839844 406.894531 448.808594 406.671875 C 448.777344 406.445312 448.617188 406.351562 448.332031 406.351562 C 448.238281 406.351562 448.140625 406.320312 448.078125 406.222656 C 448.015625 406.128906 447.980469 405.96875 447.980469 405.714844 C 447.980469 405.460938 448.046875 405.078125 448.140625 404.570312 C 448.585938 402.503906 449.792969 397.863281 451.730469 390.710938 L 453.449219 384.421875 L 471.503906 384.421875 C 471.792969 384.421875 472.011719 384.324219 472.171875 384.101562 C 472.328125 383.878906 472.363281 383.691406 472.328125 383.464844 C 472.300781 383.242188 472.109375 383.148438 471.820312 383.148438 Z M 471.820312 383.148438 " fill-opacity="1" fill-rule="nonzero"/><path fill="#f9fafd" d="M 464.636719 394.847656 C 462.410156 396.847656 460.632812 397.800781 459.296875 397.671875 C 458.535156 397.578125 458.152344 397.195312 458.152344 396.5625 C 458.121094 395.957031 458.25 395.226562 458.503906 394.433594 L 458.566406 394.238281 C 458.597656 393.957031 458.566406 393.765625 458.40625 393.667969 C 458.25 393.574219 458.058594 393.574219 457.835938 393.636719 C 457.613281 393.703125 457.453125 393.859375 457.324219 394.113281 C 456.789062 395.101562 456.308594 395.863281 455.925781 396.371094 C 455.546875 396.910156 455.261719 397.261719 455.035156 397.417969 C 454.816406 397.609375 454.65625 397.707031 454.59375 397.707031 C 454.5625 397.707031 454.5 397.707031 454.464844 397.671875 C 454.402344 397.671875 454.339844 397.644531 454.304688 397.578125 C 454.273438 397.515625 454.246094 397.417969 454.246094 397.261719 C 454.246094 396.941406 454.339844 396.59375 454.527344 396.179688 C 454.6875 395.796875 454.878906 395.480469 455.101562 395.226562 C 455.324219 394.972656 455.484375 394.90625 455.644531 395.035156 C 455.800781 395.195312 456.023438 395.226562 456.246094 395.128906 C 456.46875 395.035156 456.660156 394.875 456.789062 394.652344 C 456.882812 394.433594 456.882812 394.238281 456.722656 394.050781 C 456.246094 393.574219 455.707031 393.507812 455.101562 393.828125 C 454.5 394.144531 453.992188 394.652344 453.578125 395.382812 C 453.132812 396.117188 452.90625 396.878906 452.90625 397.644531 C 452.972656 398.535156 453.417969 398.976562 454.246094 398.976562 C 455.035156 398.976562 455.898438 398.339844 456.816406 397.101562 C 456.914062 397.769531 457.167969 398.246094 457.578125 398.535156 C 457.992188 398.816406 458.535156 398.976562 459.234375 398.976562 C 460.917969 398.976562 462.984375 397.863281 465.402344 395.671875 C 465.621094 395.449219 465.71875 395.226562 465.6875 395.003906 C 465.621094 394.8125 465.496094 394.6875 465.308594 394.621094 C 465.082031 394.558594 464.859375 394.621094 464.636719 394.847656 Z M 464.636719 394.847656 " fill-opacity="1" fill-rule="nonzero"/><path stroke-linecap="butt" transform="matrix(0.6975, 0, 0, 0.6975, 314.151492, 343.153011)" fill="none" stroke-linejoin="miter" d="M 0.00122158 0.497476 L 296.355403 0.497476 " stroke="#f9fafd" stroke-width="1" stroke-opacity="1" stroke-miterlimit="4"/><path stroke-linecap="butt" transform="matrix(0.6975, 0, 0, 0.6975, 314.151492, 437.864182)" fill="none" stroke-linejoin="miter" d="M 0.00122158 0.502741 L 296.355403 0.502741 " stroke="#f9fafd" stroke-width="1" stroke-opacity="1" stroke-miterlimit="4"/><path stroke-linecap="butt" transform="matrix(-0.0101646, 0.697426, -0.697426, -0.0101646, 314.845504, 343.684455)" fill="none" stroke-linejoin="miter" d="M 0.000466304 0.500994 L 25.759248 0.500836 " stroke="#f9fafd" stroke-width="1" stroke-opacity="1" stroke-miterlimit="4"/><path stroke-linecap="butt" transform="matrix(0, 0.6975, -0.6975, 0, 520.856113, 343.67845)" fill="none" stroke-linejoin="miter" d="M -0.00382604 0.499356 L 46.008721 0.499356 " stroke="#f9fafd" stroke-width="1" stroke-opacity="1" stroke-miterlimit="4"/><path stroke-linecap="butt" transform="matrix(0, 0.6975, -0.6975, 0, 314.584881, 414.888503)" fill="none" stroke-linejoin="miter" d="M -0.00255825 0.502518 L 33.913214 0.502518 " stroke="#f9fafd" stroke-width="1" stroke-opacity="1" stroke-miterlimit="4"/><path stroke-linecap="butt" transform="matrix(0, 0.6975, -0.6975, 0, 521.552665, 407.639183)" fill="none" stroke-linejoin="miter" d="M 0.00206668 0.501133 L 44.312105 0.501133 " stroke="#f9fafd" stroke-width="1" stroke-opacity="1" stroke-miterlimit="4"/><g clip-path="url(#9b89781b9d)"><path fill="#eff0ec" d="M 400.535156 354.332031 C 400.515625 353.328125 400.570312 352.335938 400.96875 351.394531 C 401.519531 350.105469 402.429688 349.230469 403.808594 348.871094 C 404.4375 348.707031 405.066406 348.703125 405.695312 348.835938 C 406.527344 349.011719 407.308594 349.320312 408.035156 349.765625 C 408.757812 350.210938 409.414062 350.734375 410.027344 351.316406 C 411.019531 352.269531 411.882812 353.332031 412.675781 354.445312 C 414.328125 356.773438 415.632812 359.289062 416.699219 361.929688 C 416.914062 362.464844 417.144531 362.992188 417.371094 363.523438 C 417.429688 363.660156 417.664062 363.664062 417.753906 363.527344 C 417.980469 363.175781 418.207031 362.824219 418.425781 362.46875 C 419.617188 360.476562 420.945312 358.585938 422.484375 356.84375 C 423.496094 355.695312 424.589844 354.632812 425.8125 353.703125 C 426.699219 353.035156 427.636719 352.453125 428.667969 352.027344 C 429.558594 351.65625 430.480469 351.464844 431.449219 351.535156 C 432.941406 351.648438 434.128906 352.671875 434.449219 354.136719 C 434.6875 355.242188 434.578125 356.335938 434.304688 357.414062 C 434.066406 358.328125 433.714844 359.207031 433.316406 360.066406 C 432.695312 361.402344 431.964844 362.679688 431.203125 363.9375 C 429.644531 366.503906 427.917969 368.957031 426.066406 371.320312 C 424.1875 373.726562 422.21875 376.058594 420.191406 378.34375 C 419.808594 378.777344 419.410156 379.199219 418.996094 379.601562 C 418.730469 379.855469 418.4375 380.09375 418.132812 380.292969 C 417.523438 380.699219 416.863281 380.789062 416.175781 380.496094 C 415.886719 380.371094 415.59375 380.234375 415.34375 380.054688 C 414.960938 379.777344 414.585938 379.480469 414.25 379.144531 C 413.691406 378.589844 413.140625 378.023438 412.625 377.417969 C 410.273438 374.652344 408.070312 371.765625 406.074219 368.730469 C 404.425781 366.214844 403.03125 363.566406 401.976562 360.753906 C 401.472656 359.425781 401.066406 358.070312 400.785156 356.675781 C 400.628906 355.898438 400.554688 355.117188 400.535156 354.332031 Z M 401.554688 354.273438 C 401.570312 354.460938 401.597656 354.773438 401.628906 355.085938 C 401.828125 356.871094 402.308594 358.582031 402.929688 360.261719 C 404.03125 363.230469 405.519531 366 407.28125 368.628906 C 409.125 371.382812 411.136719 374.011719 413.277344 376.542969 C 413.78125 377.148438 414.332031 377.71875 414.886719 378.277344 C 415.21875 378.609375 415.585938 378.917969 415.96875 379.191406 C 416.734375 379.742188 417.28125 379.714844 417.960938 379.109375 C 418.351562 378.757812 418.722656 378.382812 419.070312 377.988281 C 421.980469 374.730469 424.792969 371.394531 427.339844 367.84375 C 428.808594 365.789062 430.199219 363.6875 431.394531 361.464844 C 431.890625 360.542969 432.332031 359.585938 432.765625 358.632812 C 433.097656 357.914062 433.28125 357.144531 433.4375 356.375 C 433.558594 355.804688 433.59375 355.222656 433.476562 354.652344 C 433.183594 353.21875 432.335938 352.523438 430.769531 352.589844 C 430.664062 352.59375 430.5625 352.617188 430.457031 352.632812 C 429.824219 352.714844 429.226562 352.917969 428.652344 353.1875 C 427.882812 353.550781 427.175781 354.007812 426.503906 354.515625 C 425.28125 355.441406 424.191406 356.503906 423.183594 357.65625 C 421.378906 359.726562 419.859375 361.996094 418.554688 364.402344 C 418.382812 364.726562 418.203125 365.046875 418.003906 365.355469 C 417.757812 365.742188 417.148438 365.738281 416.945312 365.347656 C 416.753906 364.972656 416.59375 364.585938 416.433594 364.199219 C 415.914062 362.9375 415.429688 361.660156 414.871094 360.417969 C 413.859375 358.160156 412.601562 356.035156 411.074219 354.078125 C 410.394531 353.207031 409.652344 352.390625 408.820312 351.660156 C 408.183594 351.101562 407.488281 350.628906 406.714844 350.273438 C 405.984375 349.933594 405.207031 349.816406 404.402344 349.875 C 403.742188 349.921875 403.1875 350.195312 402.714844 350.648438 C 402.292969 351.058594 402 351.566406 401.847656 352.128906 C 401.675781 352.785156 401.539062 353.457031 401.554688 354.273438 Z M 401.554688 354.273438 " fill-opacity="1" fill-rule="nonzero"/></g><path fill="#f9fafd" d="M 381.285156 414.171875 C 381.273438 414.191406 381.261719 414.242188 381.257812 414.328125 C 381.246094 414.410156 381.242188 414.527344 381.242188 414.679688 C 381.242188 414.824219 381.242188 415.011719 381.242188 415.246094 L 381.242188 417.949219 C 381.242188 418.285156 381.191406 418.574219 381.097656 418.804688 C 381.007812 419.046875 380.878906 419.230469 380.703125 419.359375 C 380.53125 419.480469 380.320312 419.546875 380.078125 419.546875 C 379.847656 419.546875 379.652344 419.492188 379.484375 419.386719 C 379.320312 419.289062 379.234375 419.167969 379.234375 419.023438 C 379.234375 418.945312 379.265625 418.882812 379.324219 418.835938 C 379.375 418.785156 379.441406 418.761719 379.527344 418.761719 C 379.585938 418.761719 379.652344 418.777344 379.714844 418.804688 C 379.785156 418.835938 379.847656 418.882812 379.90625 418.949219 L 380.28125 419.328125 L 380.035156 419.242188 C 380.167969 419.257812 380.28125 419.242188 380.371094 419.183594 C 380.457031 419.125 380.519531 419.015625 380.558594 418.863281 C 380.59375 418.71875 380.617188 418.519531 380.617188 418.269531 L 380.617188 415.246094 C 380.617188 415.035156 380.617188 414.851562 380.617188 414.707031 C 380.617188 414.5625 380.609375 414.445312 380.601562 414.359375 C 380.601562 414.265625 380.59375 414.199219 380.585938 414.171875 L 380.09375 414.070312 L 380.109375 413.792969 L 381.707031 413.792969 L 381.722656 414.070312 Z M 381.285156 414.171875 " fill-opacity="1" fill-rule="nonzero"/><path fill="#f9fafd" d="M 386.832031 418.136719 C 386.402344 418.136719 386.023438 418.046875 385.699219 417.859375 C 385.378906 417.667969 385.125 417.40625 384.941406 417.078125 C 384.757812 416.75 384.667969 416.371094 384.667969 415.941406 C 384.667969 415.519531 384.757812 415.140625 384.941406 414.808594 C 385.125 414.472656 385.382812 414.210938 385.710938 414.023438 C 386.050781 413.832031 386.429688 413.734375 386.847656 413.734375 C 387.253906 413.734375 387.609375 413.828125 387.921875 414.011719 C 388.230469 414.195312 388.472656 414.453125 388.648438 414.78125 C 388.820312 415.101562 388.910156 415.472656 388.910156 415.898438 C 388.910156 416.21875 388.851562 416.515625 388.734375 416.785156 C 388.625 417.058594 388.476562 417.292969 388.285156 417.496094 C 388.089844 417.703125 387.867188 417.859375 387.617188 417.976562 C 387.371094 418.082031 387.109375 418.136719 386.832031 418.136719 Z M 386.890625 417.730469 C 387.160156 417.730469 387.386719 417.664062 387.574219 417.527344 C 387.765625 417.390625 387.914062 417.203125 388.023438 416.960938 C 388.128906 416.710938 388.183594 416.414062 388.183594 416.074219 C 388.183594 415.675781 388.117188 415.332031 387.992188 415.042969 C 387.878906 414.742188 387.710938 414.511719 387.5 414.34375 C 387.285156 414.179688 387.039062 414.097656 386.757812 414.097656 C 386.339844 414.097656 386.011719 414.253906 385.769531 414.5625 C 385.539062 414.863281 385.421875 415.28125 385.421875 415.8125 C 385.421875 416.191406 385.484375 416.523438 385.609375 416.816406 C 385.734375 417.097656 385.910156 417.320312 386.132812 417.484375 C 386.355469 417.648438 386.605469 417.730469 386.890625 417.730469 Z M 386.890625 417.730469 " fill-opacity="1" fill-rule="nonzero"/><path fill="#f9fafd" d="M 395.078125 414.171875 L 393.597656 416.480469 L 393.773438 415.988281 L 393.773438 416.667969 C 393.773438 416.855469 393.773438 417.011719 393.773438 417.132812 C 393.78125 417.261719 393.785156 417.363281 393.785156 417.441406 C 393.785156 417.507812 393.785156 417.5625 393.785156 417.597656 C 393.792969 417.640625 393.800781 417.667969 393.800781 417.6875 L 394.308594 417.773438 L 394.296875 418.066406 L 392.636719 418.066406 L 392.625 417.773438 L 393.132812 417.6875 C 393.132812 417.667969 393.132812 417.640625 393.132812 417.597656 C 393.140625 417.5625 393.148438 417.507812 393.148438 417.441406 C 393.15625 417.363281 393.160156 417.261719 393.160156 417.132812 C 393.160156 417.011719 393.160156 416.855469 393.160156 416.667969 L 393.160156 415.988281 L 393.308594 416.480469 L 391.867188 414.171875 L 391.503906 414.070312 L 391.519531 413.792969 L 393.03125 413.792969 L 393.046875 414.070312 L 392.609375 414.171875 L 393.671875 415.886719 L 393.570312 415.886719 L 394.601562 414.171875 L 394.089844 414.070312 L 394.105469 413.792969 L 395.429688 413.792969 L 395.441406 414.070312 Z M 395.078125 414.171875 " fill-opacity="1" fill-rule="nonzero"/><path fill="#f9fafd" d="M 398.03125 418.066406 L 398.015625 417.789062 L 398.453125 417.6875 C 398.460938 417.65625 398.46875 417.597656 398.46875 417.511719 C 398.476562 417.425781 398.480469 417.308594 398.480469 417.164062 C 398.480469 417.011719 398.480469 416.824219 398.480469 416.613281 L 398.480469 415.246094 C 398.480469 415.035156 398.480469 414.847656 398.480469 414.691406 C 398.480469 414.539062 398.476562 414.417969 398.46875 414.328125 C 398.46875 414.242188 398.460938 414.191406 398.453125 414.171875 L 398.015625 414.070312 L 398.03125 413.792969 L 399.570312 413.792969 L 399.585938 414.070312 L 399.152344 414.171875 C 399.140625 414.191406 399.128906 414.238281 399.121094 414.316406 C 399.109375 414.394531 399.105469 414.511719 399.105469 414.664062 C 399.105469 414.808594 399.105469 415.003906 399.105469 415.246094 L 399.105469 416.613281 C 399.105469 416.84375 399.105469 417.039062 399.105469 417.191406 C 399.105469 417.339844 399.109375 417.453125 399.121094 417.542969 C 399.128906 417.621094 399.140625 417.667969 399.152344 417.6875 L 399.585938 417.789062 L 399.570312 418.066406 Z M 398.03125 418.066406 " fill-opacity="1" fill-rule="nonzero"/><path fill="#f9fafd" d="M 405.917969 413.761719 L 406.078125 414.941406 L 405.757812 414.984375 L 405.453125 414.15625 C 405.410156 414.148438 405.367188 414.140625 405.320312 414.140625 C 405.269531 414.140625 405.226562 414.140625 405.191406 414.140625 L 404.929688 414.140625 C 404.878906 414.140625 404.8125 414.140625 404.726562 414.140625 C 404.644531 414.140625 404.570312 414.140625 404.507812 414.140625 C 404.507812 414.179688 404.5 414.273438 404.492188 414.417969 C 404.492188 414.5625 404.492188 414.734375 404.492188 414.925781 C 404.492188 415.109375 404.492188 415.289062 404.492188 415.464844 L 404.492188 416.4375 C 404.492188 416.75 404.492188 417.015625 404.492188 417.234375 C 404.5 417.460938 404.507812 417.609375 404.507812 417.6875 L 405.132812 417.773438 L 405.101562 418.066406 L 403.257812 418.066406 L 403.242188 417.773438 L 403.851562 417.6875 C 403.851562 417.609375 403.851562 417.460938 403.851562 417.234375 C 403.859375 417.015625 403.867188 416.75 403.867188 416.4375 L 403.867188 415.464844 C 403.867188 415.289062 403.867188 415.109375 403.867188 414.925781 C 403.867188 414.734375 403.867188 414.5625 403.867188 414.417969 C 403.867188 414.273438 403.859375 414.179688 403.851562 414.140625 C 403.792969 414.140625 403.722656 414.140625 403.636719 414.140625 C 403.554688 414.140625 403.492188 414.140625 403.445312 414.140625 L 403.15625 414.140625 C 403.117188 414.140625 403.070312 414.140625 403.023438 414.140625 C 402.984375 414.140625 402.941406 414.148438 402.894531 414.15625 L 402.601562 414.984375 L 402.269531 414.941406 L 402.429688 413.761719 C 402.488281 413.773438 402.546875 413.777344 402.601562 413.777344 C 402.660156 413.777344 402.71875 413.785156 402.777344 413.792969 C 402.84375 413.792969 402.910156 413.792969 402.964844 413.792969 C 403.023438 413.792969 403.082031 413.792969 403.140625 413.792969 L 405.21875 413.792969 C 405.265625 413.792969 405.320312 413.792969 405.378906 413.792969 C 405.445312 413.792969 405.507812 413.792969 405.566406 413.792969 C 405.625 413.785156 405.683594 413.777344 405.742188 413.777344 C 405.800781 413.777344 405.859375 413.773438 405.917969 413.761719 Z M 405.917969 413.761719 " fill-opacity="1" fill-rule="nonzero"/><path fill="#f9fafd" d="M 408.460938 418.066406 L 408.445312 417.789062 L 408.796875 417.6875 L 410.292969 413.921875 L 410.714844 413.660156 L 412.296875 417.6875 L 412.660156 417.789062 L 412.644531 418.066406 L 411.179688 418.066406 L 411.164062 417.789062 L 411.601562 417.6875 L 411.179688 416.613281 L 411.089844 416.378906 L 410.304688 414.402344 L 410.464844 414.316406 L 409.710938 416.378906 L 409.636719 416.597656 L 409.246094 417.6875 L 409.695312 417.789062 L 409.683594 418.066406 Z M 409.476562 416.714844 L 409.476562 416.335938 C 409.566406 416.335938 409.683594 416.34375 409.839844 416.351562 C 410.003906 416.351562 410.203125 416.351562 410.4375 416.351562 C 410.667969 416.351562 410.863281 416.351562 411.019531 416.351562 C 411.183594 416.34375 411.308594 416.335938 411.394531 416.335938 L 411.394531 416.714844 C 411.230469 416.714844 411.066406 416.714844 410.902344 416.714844 C 410.746094 416.707031 410.589844 416.699219 410.4375 416.699219 C 410.292969 416.699219 410.140625 416.707031 409.988281 416.714844 C 409.832031 416.714844 409.660156 416.714844 409.476562 416.714844 Z M 409.476562 416.714844 " fill-opacity="1" fill-rule="nonzero"/><path fill="#f9fafd" d="M 416.535156 418.136719 C 416.320312 418.136719 416.101562 418.109375 415.882812 418.050781 C 415.65625 417.992188 415.476562 417.925781 415.328125 417.847656 L 415.285156 416.902344 L 415.605469 416.871094 L 415.808594 417.527344 C 415.925781 417.605469 416.050781 417.664062 416.1875 417.703125 C 416.332031 417.742188 416.480469 417.757812 416.636719 417.757812 C 416.878906 417.757812 417.074219 417.703125 417.21875 417.585938 C 417.363281 417.46875 417.4375 417.316406 417.4375 417.121094 C 417.4375 416.945312 417.382812 416.808594 417.277344 416.699219 C 417.179688 416.582031 417.046875 416.480469 416.882812 416.394531 C 416.71875 416.304688 416.542969 416.226562 416.363281 416.144531 C 416.1875 416.070312 416.015625 415.980469 415.851562 415.871094 C 415.695312 415.765625 415.566406 415.636719 415.460938 415.492188 C 415.351562 415.339844 415.300781 415.144531 415.300781 414.910156 C 415.300781 414.679688 415.367188 414.476562 415.503906 414.300781 C 415.636719 414.121094 415.824219 413.976562 416.054688 413.878906 C 416.289062 413.773438 416.554688 413.71875 416.855469 413.71875 C 416.980469 413.71875 417.101562 413.730469 417.21875 413.75 C 417.335938 413.757812 417.441406 413.777344 417.539062 413.808594 C 417.644531 413.828125 417.742188 413.859375 417.828125 413.894531 L 417.886719 414.796875 L 417.566406 414.824219 L 417.363281 414.214844 C 417.207031 414.121094 417.007812 414.070312 416.769531 414.070312 C 416.523438 414.070312 416.324219 414.132812 416.171875 414.257812 C 416.027344 414.375 415.953125 414.53125 415.953125 414.722656 C 415.953125 414.898438 416.003906 415.050781 416.113281 415.171875 C 416.21875 415.289062 416.351562 415.390625 416.507812 415.476562 C 416.671875 415.566406 416.84375 415.648438 417.03125 415.726562 C 417.210938 415.804688 417.382812 415.894531 417.539062 416 C 417.703125 416.097656 417.835938 416.226562 417.945312 416.378906 C 418.050781 416.523438 418.105469 416.707031 418.105469 416.917969 C 418.105469 417.148438 418.035156 417.359375 417.902344 417.542969 C 417.761719 417.726562 417.574219 417.871094 417.335938 417.976562 C 417.101562 418.082031 416.832031 418.136719 416.535156 418.136719 Z M 416.535156 418.136719 " fill-opacity="1" fill-rule="nonzero"/><path fill="#f9fafd" d="M 424.261719 418.066406 L 424.25 417.789062 L 424.597656 417.6875 L 426.09375 413.921875 L 426.515625 413.660156 L 428.097656 417.6875 L 428.460938 417.789062 L 428.449219 418.066406 L 426.980469 418.066406 L 426.964844 417.789062 L 427.402344 417.6875 L 426.980469 416.613281 L 426.894531 416.378906 L 426.109375 414.402344 L 426.269531 414.316406 L 425.511719 416.378906 L 425.441406 416.597656 L 425.046875 417.6875 L 425.496094 417.789062 L 425.484375 418.066406 Z M 425.28125 416.714844 L 425.28125 416.335938 C 425.367188 416.335938 425.488281 416.34375 425.644531 416.351562 C 425.808594 416.351562 426.007812 416.351562 426.238281 416.351562 C 426.472656 416.351562 426.664062 416.351562 426.820312 416.351562 C 426.984375 416.34375 427.109375 416.335938 427.199219 416.335938 L 427.199219 416.714844 C 427.03125 416.714844 426.867188 416.714844 426.703125 416.714844 C 426.546875 416.707031 426.390625 416.699219 426.238281 416.699219 C 426.09375 416.699219 425.941406 416.707031 425.789062 416.714844 C 425.632812 416.714844 425.460938 416.714844 425.28125 416.714844 Z M 425.28125 416.714844 " fill-opacity="1" fill-rule="nonzero"/><path fill="#f9fafd" d="M 433.367188 418.136719 C 432.949219 418.136719 432.570312 418.058594 432.21875 417.890625 C 431.871094 417.726562 431.589844 417.484375 431.378906 417.164062 C 431.175781 416.835938 431.074219 416.433594 431.074219 415.957031 C 431.074219 415.660156 431.125 415.371094 431.230469 415.101562 C 431.335938 414.832031 431.492188 414.589844 431.695312 414.386719 C 431.90625 414.183594 432.164062 414.023438 432.453125 413.910156 C 432.75 413.792969 433.09375 413.734375 433.46875 413.734375 C 433.664062 413.734375 433.871094 413.757812 434.09375 413.792969 C 434.316406 413.832031 434.515625 413.886719 434.691406 413.953125 L 434.75 414.953125 L 434.414062 414.984375 L 434.195312 414.285156 C 434.109375 414.226562 433.984375 414.183594 433.832031 414.15625 C 433.6875 414.121094 433.542969 414.097656 433.398438 414.097656 C 433.039062 414.097656 432.742188 414.179688 432.511719 414.34375 C 432.277344 414.5 432.109375 414.707031 432.003906 414.96875 C 431.894531 415.230469 431.84375 415.519531 431.84375 415.828125 C 431.84375 416.246094 431.90625 416.597656 432.046875 416.886719 C 432.191406 417.171875 432.382812 417.382812 432.628906 417.527344 C 432.878906 417.671875 433.148438 417.746094 433.441406 417.746094 C 433.59375 417.746094 433.734375 417.730469 433.863281 417.703125 C 433.984375 417.664062 434.109375 417.609375 434.226562 417.542969 L 434.546875 416.859375 L 434.878906 416.886719 L 434.675781 417.804688 C 434.507812 417.890625 434.3125 417.96875 434.082031 418.035156 C 433.855469 418.101562 433.617188 418.136719 433.367188 418.136719 Z M 433.367188 418.136719 " fill-opacity="1" fill-rule="nonzero"/><path fill="#f9fafd" d="M 440.847656 418.109375 C 440.710938 418.085938 440.585938 418.070312 440.46875 418.066406 C 440.359375 418.066406 440.257812 418.066406 440.164062 418.066406 L 437.679688 418.066406 L 437.648438 417.789062 L 438.101562 417.6875 C 438.109375 417.65625 438.113281 417.597656 438.113281 417.511719 C 438.121094 417.425781 438.128906 417.308594 438.128906 417.164062 C 438.128906 417.011719 438.128906 416.824219 438.128906 416.613281 L 438.128906 415.246094 C 438.128906 415.035156 438.128906 414.847656 438.128906 414.691406 C 438.128906 414.539062 438.121094 414.417969 438.113281 414.328125 C 438.113281 414.242188 438.109375 414.191406 438.101562 414.171875 L 437.648438 414.070312 L 437.679688 413.792969 L 440.003906 413.792969 C 440.070312 413.792969 440.140625 413.792969 440.222656 413.792969 C 440.296875 413.792969 440.382812 413.792969 440.46875 413.792969 C 440.554688 413.785156 440.644531 413.773438 440.730469 413.761719 L 440.875 414.722656 L 440.554688 414.78125 L 440.308594 414.171875 C 440.269531 414.164062 440.226562 414.15625 440.179688 414.15625 C 440.128906 414.148438 440.082031 414.140625 440.035156 414.140625 L 439.203125 414.140625 C 439.117188 414.140625 439.035156 414.148438 438.957031 414.15625 C 438.890625 414.15625 438.820312 414.164062 438.753906 414.171875 C 438.753906 414.191406 438.753906 414.242188 438.753906 414.328125 C 438.753906 414.417969 438.746094 414.519531 438.738281 414.636719 C 438.738281 414.75 438.738281 414.867188 438.738281 414.984375 L 438.738281 416.945312 C 438.738281 417.042969 438.738281 417.144531 438.738281 417.25 C 438.746094 417.347656 438.753906 417.4375 438.753906 417.511719 C 438.753906 417.582031 438.753906 417.636719 438.753906 417.671875 C 438.832031 417.671875 438.902344 417.679688 438.972656 417.6875 C 439.050781 417.6875 439.132812 417.6875 439.21875 417.6875 L 439.929688 417.6875 C 440.035156 417.6875 440.125 417.6875 440.191406 417.6875 C 440.257812 417.6875 440.3125 417.6875 440.351562 417.6875 C 440.390625 417.679688 440.417969 417.667969 440.441406 417.65625 L 440.816406 416.976562 L 441.152344 417.03125 Z M 440.046875 416.566406 L 439.960938 416.074219 C 439.929688 416.066406 439.886719 416.058594 439.828125 416.058594 C 439.773438 416.050781 439.703125 416.042969 439.625 416.042969 L 439.074219 416.042969 C 439.003906 416.042969 438.933594 416.050781 438.855469 416.058594 C 438.789062 416.058594 438.714844 416.066406 438.636719 416.074219 L 438.636719 415.667969 C 438.714844 415.675781 438.789062 415.679688 438.855469 415.679688 C 438.933594 415.679688 439.003906 415.679688 439.074219 415.679688 L 439.625 415.679688 C 439.703125 415.679688 439.773438 415.679688 439.828125 415.679688 C 439.886719 415.679688 439.929688 415.675781 439.960938 415.667969 L 440.046875 415.160156 L 440.351562 415.160156 L 440.351562 416.566406 Z M 440.046875 416.566406 " fill-opacity="1" fill-rule="nonzero"/><path fill="#f9fafd" d="M 443.964844 418.066406 L 443.953125 417.789062 L 444.402344 417.671875 C 444.402344 417.644531 444.402344 417.597656 444.402344 417.527344 C 444.402344 417.449219 444.402344 417.363281 444.402344 417.265625 C 444.402344 417.171875 444.402344 417.070312 444.402344 416.960938 C 444.410156 416.84375 444.417969 416.726562 444.417969 416.613281 L 444.417969 415.246094 C 444.417969 415.023438 444.410156 414.839844 444.402344 414.691406 C 444.402344 414.539062 444.394531 414.417969 444.386719 414.328125 C 444.386719 414.242188 444.386719 414.191406 444.386719 414.171875 L 443.9375 414.070312 L 443.953125 413.792969 L 445.550781 413.792969 C 446.003906 413.792969 446.347656 413.886719 446.582031 414.070312 C 446.820312 414.242188 446.945312 414.5 446.945312 414.839844 C 446.945312 415.082031 446.875 415.296875 446.742188 415.476562 C 446.613281 415.664062 446.4375 415.808594 446.203125 415.914062 C 445.972656 416.023438 445.703125 416.074219 445.40625 416.074219 L 444.9375 416.074219 L 444.9375 415.753906 L 445.347656 415.753906 C 445.644531 415.753906 445.875 415.679688 446.042969 415.535156 C 446.21875 415.382812 446.304688 415.167969 446.304688 414.898438 C 446.304688 414.644531 446.234375 414.453125 446.085938 414.316406 C 445.941406 414.179688 445.730469 414.113281 445.460938 414.113281 L 445.042969 414.113281 C 445.03125 414.121094 445.027344 414.140625 445.027344 414.171875 C 445.027344 414.199219 445.027344 414.25 445.027344 414.316406 C 445.027344 414.382812 445.027344 414.484375 445.027344 414.621094 C 445.027344 414.746094 445.027344 414.921875 445.027344 415.144531 L 445.027344 416.613281 C 445.027344 416.824219 445.027344 417.003906 445.027344 417.148438 C 445.027344 417.285156 445.03125 417.394531 445.042969 417.484375 C 445.046875 417.5625 445.054688 417.625 445.054688 417.671875 L 445.492188 417.789062 L 445.460938 418.066406 Z M 447.410156 418.136719 C 447.195312 418.136719 447.007812 418.097656 446.84375 418.019531 C 446.675781 417.933594 446.515625 417.800781 446.363281 417.613281 C 446.21875 417.421875 446.050781 417.171875 445.871094 416.859375 L 445.375 415.957031 L 445.914062 415.828125 L 446.699219 416.988281 C 446.832031 417.183594 446.953125 417.34375 447.0625 417.46875 C 447.175781 417.585938 447.285156 417.671875 447.394531 417.730469 C 447.5 417.789062 447.617188 417.828125 447.742188 417.847656 L 447.730469 418.109375 C 447.679688 418.117188 447.628906 418.121094 447.570312 418.121094 C 447.519531 418.128906 447.46875 418.136719 447.410156 418.136719 Z M 447.410156 418.136719 " fill-opacity="1" fill-rule="nonzero"/><path fill="#f9fafd" d="M 452.484375 418.136719 C 452.054688 418.136719 451.675781 418.046875 451.347656 417.859375 C 451.03125 417.667969 450.777344 417.40625 450.59375 417.078125 C 450.410156 416.75 450.316406 416.371094 450.316406 415.941406 C 450.316406 415.519531 450.410156 415.140625 450.59375 414.808594 C 450.777344 414.472656 451.035156 414.210938 451.363281 414.023438 C 451.703125 413.832031 452.078125 413.734375 452.496094 413.734375 C 452.902344 413.734375 453.261719 413.828125 453.574219 414.011719 C 453.882812 414.195312 454.125 414.453125 454.300781 414.78125 C 454.472656 415.101562 454.5625 415.472656 454.5625 415.898438 C 454.5625 416.21875 454.503906 416.515625 454.386719 416.785156 C 454.277344 417.058594 454.128906 417.292969 453.9375 417.496094 C 453.738281 417.703125 453.519531 417.859375 453.265625 417.976562 C 453.023438 418.082031 452.761719 418.136719 452.484375 418.136719 Z M 452.539062 417.730469 C 452.808594 417.730469 453.039062 417.664062 453.222656 417.527344 C 453.417969 417.390625 453.566406 417.203125 453.675781 416.960938 C 453.78125 416.710938 453.835938 416.414062 453.835938 416.074219 C 453.835938 415.675781 453.769531 415.332031 453.644531 415.042969 C 453.527344 414.742188 453.363281 414.511719 453.152344 414.34375 C 452.9375 414.179688 452.691406 414.097656 452.410156 414.097656 C 451.992188 414.097656 451.660156 414.253906 451.421875 414.5625 C 451.191406 414.863281 451.074219 415.28125 451.074219 415.8125 C 451.074219 416.191406 451.136719 416.523438 451.261719 416.816406 C 451.386719 417.097656 451.558594 417.320312 451.785156 417.484375 C 452.007812 417.648438 452.257812 417.730469 452.539062 417.730469 Z M 452.539062 417.730469 " fill-opacity="1" fill-rule="nonzero"/></svg>