<svg xmlns="http://www.w3.org/2000/svg" xmlns:xlink="http://www.w3.org/1999/xlink" width="500" zoomAndPan="magnify" viewBox="0 0 375 374.999991" height="500" preserveAspectRatio="xMidYMid meet" version="1.0"><defs><g/><clipPath id="a95b9eba6d"><path d="M 148.515625 66.175781 L 172.285156 66.175781 L 172.285156 139.792969 L 148.515625 139.792969 Z M 148.515625 66.175781 " clip-rule="nonzero"/></clipPath><clipPath id="c53cbcf285"><path d="M 148.515625 199.957031 L 172.285156 199.957031 L 172.285156 273.574219 L 148.515625 273.574219 Z M 148.515625 199.957031 " clip-rule="nonzero"/></clipPath><clipPath id="5612948042"><path d="M 173.46875 158.359375 L 247.085938 158.359375 L 247.085938 182.128906 L 173.46875 182.128906 Z M 173.46875 158.359375 " clip-rule="nonzero"/></clipPath></defs><rect x="-37.5" width="450" fill="#ffffff" y="-37.499999" height="449.999989" fill-opacity="1"/><rect x="-37.5" width="450" fill="#000000" y="-37.499999" height="449.999989" fill-opacity="1"/><g fill="#f8f8f8" fill-opacity="1"><g transform="translate(70.30133, 259.790584)"><g><path d="M 94.375 1.75 C 78.8125 1.75 65.296875 -1.675781 53.828125 -8.53125 C 42.367188 -15.394531 33.503906 -25.351562 27.234375 -38.40625 C 20.960938 -51.457031 17.828125 -67.269531 17.828125 -85.84375 C 17.828125 -104.414062 21.378906 -120.851562 28.484375 -135.15625 C 35.597656 -149.46875 45.300781 -160.640625 57.59375 -168.671875 C 69.894531 -176.703125 83.828125 -180.71875 99.390625 -180.71875 C 114.285156 -180.71875 127.296875 -177.035156 138.421875 -169.671875 C 149.554688 -162.304688 158.21875 -152.054688 164.40625 -138.921875 C 170.59375 -125.785156 173.6875 -110.351562 173.6875 -92.625 C 173.6875 -73.375 170.253906 -56.675781 163.390625 -42.53125 C 156.535156 -28.394531 147.164062 -17.476562 135.28125 -9.78125 C 123.40625 -2.09375 109.769531 1.75 94.375 1.75 Z M 94.375 -6.03125 C 108.425781 -6.03125 120.804688 -9.457031 131.515625 -16.3125 C 142.234375 -23.175781 150.601562 -33.132812 156.625 -46.1875 C 162.644531 -59.238281 165.65625 -75.050781 165.65625 -93.625 C 165.65625 -110.019531 162.9375 -124.113281 157.5 -135.90625 C 152.0625 -147.707031 144.40625 -156.828125 134.53125 -163.265625 C 124.664062 -169.710938 113.035156 -172.9375 99.640625 -172.9375 C 85.253906 -172.9375 72.492188 -169.335938 61.359375 -162.140625 C 50.234375 -154.953125 41.535156 -144.789062 35.265625 -131.65625 C 28.992188 -118.519531 25.859375 -103.082031 25.859375 -85.34375 C 25.859375 -59.738281 31.960938 -40.117188 44.171875 -26.484375 C 56.390625 -12.847656 73.125 -6.03125 94.375 -6.03125 Z M 94.375 -6.03125 "/></g></g></g><g clip-path="url(#a95b9eba6d)"><path fill="#000000" d="M 148.515625 139.792969 L 148.515625 66.175781 L 172.285156 66.175781 L 172.285156 139.792969 Z M 148.515625 139.792969 " fill-opacity="1" fill-rule="nonzero"/></g><g clip-path="url(#c53cbcf285)"><path fill="#000000" d="M 148.515625 273.574219 L 148.515625 199.957031 L 172.285156 199.957031 L 172.285156 273.574219 Z M 148.515625 273.574219 " fill-opacity="1" fill-rule="nonzero"/></g><g clip-path="url(#5612948042)"><path fill="#000000" d="M 173.46875 158.359375 L 247.085938 158.359375 L 247.085938 182.128906 L 173.46875 182.128906 Z M 173.46875 158.359375 " fill-opacity="1" fill-rule="nonzero"/></g><g fill="#f8f8f8" fill-opacity="1"><g transform="translate(142.575625, 260.540584)"><g><path d="M 155.875 -33.640625 C 149.84375 -22.253906 141.472656 -13.507812 130.765625 -7.40625 C 120.054688 -1.300781 107.59375 1.75 93.375 1.75 C 77.8125 1.75 64.378906 -1.757812 53.078125 -8.78125 C 41.785156 -15.8125 33.085938 -25.894531 26.984375 -39.03125 C 20.878906 -52.164062 17.828125 -67.851562 17.828125 -86.09375 C 17.828125 -104.832031 21.171875 -121.269531 27.859375 -135.40625 C 34.554688 -149.550781 43.925781 -160.640625 55.96875 -168.671875 C 68.019531 -176.703125 81.992188 -180.71875 97.890625 -180.71875 C 110.609375 -180.71875 122.070312 -177.957031 132.28125 -172.4375 C 142.488281 -166.914062 150.4375 -158.882812 156.125 -148.34375 L 149.84375 -143.0625 C 144.15625 -152.9375 137.128906 -160.382812 128.765625 -165.40625 C 120.398438 -170.425781 109.859375 -172.9375 97.140625 -172.9375 C 83.242188 -172.9375 70.898438 -169.253906 60.109375 -161.890625 C 49.316406 -154.523438 40.910156 -144.273438 34.890625 -131.140625 C 28.867188 -118.003906 25.859375 -102.820312 25.859375 -85.59375 C 25.859375 -60.488281 31.753906 -40.953125 43.546875 -26.984375 C 55.347656 -13.015625 71.789062 -6.03125 92.875 -6.03125 C 106.757812 -6.03125 118.300781 -8.832031 127.5 -14.4375 C 136.707031 -20.039062 143.988281 -27.945312 149.34375 -38.15625 Z M 155.875 -33.640625 "/></g></g></g><g fill="#f8f8f8" fill-opacity="1"><g transform="translate(111.045018, 287.605676)"><g><path d="M 2.984375 0.125 C 2.078125 0.125 1.359375 -0.078125 0.828125 -0.484375 C 0.296875 -0.898438 -0.0507812 -1.445312 -0.21875 -2.125 L 0.28125 -2.296875 C 0.476562 -1.628906 0.796875 -1.144531 1.234375 -0.84375 C 1.679688 -0.550781 2.269531 -0.40625 3 -0.40625 C 3.851562 -0.40625 4.46875 -0.648438 4.84375 -1.140625 C 5.21875 -1.640625 5.40625 -2.46875 5.40625 -3.625 L 5.40625 -12.78125 L 5.953125 -12.78125 L 5.953125 -3.65625 C 5.953125 -2.332031 5.707031 -1.367188 5.21875 -0.765625 C 4.726562 -0.171875 3.984375 0.125 2.984375 0.125 Z M 2.984375 0.125 "/></g></g></g><g fill="#f8f8f8" fill-opacity="1"><g transform="translate(122.961577, 287.605676)"><g><path d="M 6.765625 0.125 C 5.648438 0.125 4.679688 -0.117188 3.859375 -0.609375 C 3.035156 -1.097656 2.398438 -1.8125 1.953125 -2.75 C 1.503906 -3.6875 1.28125 -4.820312 1.28125 -6.15625 C 1.28125 -7.488281 1.535156 -8.664062 2.046875 -9.6875 C 2.554688 -10.71875 3.25 -11.519531 4.125 -12.09375 C 5.007812 -12.664062 6.007812 -12.953125 7.125 -12.953125 C 8.195312 -12.953125 9.128906 -12.6875 9.921875 -12.15625 C 10.722656 -11.632812 11.34375 -10.898438 11.78125 -9.953125 C 12.226562 -9.015625 12.453125 -7.910156 12.453125 -6.640625 C 12.453125 -5.265625 12.207031 -4.066406 11.71875 -3.046875 C 11.226562 -2.035156 10.554688 -1.253906 9.703125 -0.703125 C 8.847656 -0.148438 7.867188 0.125 6.765625 0.125 Z M 6.765625 -0.4375 C 7.773438 -0.4375 8.660156 -0.679688 9.421875 -1.171875 C 10.191406 -1.660156 10.789062 -2.375 11.21875 -3.3125 C 11.65625 -4.25 11.875 -5.382812 11.875 -6.71875 C 11.875 -7.894531 11.675781 -8.90625 11.28125 -9.75 C 10.894531 -10.59375 10.347656 -11.242188 9.640625 -11.703125 C 8.941406 -12.171875 8.109375 -12.40625 7.140625 -12.40625 C 6.109375 -12.40625 5.191406 -12.144531 4.390625 -11.625 C 3.597656 -11.113281 2.976562 -10.382812 2.53125 -9.4375 C 2.082031 -8.5 1.859375 -7.394531 1.859375 -6.125 C 1.859375 -4.28125 2.296875 -2.867188 3.171875 -1.890625 C 4.046875 -0.921875 5.242188 -0.4375 6.765625 -0.4375 Z M 6.765625 -0.4375 "/></g></g></g><g fill="#f8f8f8" fill-opacity="1"><g transform="translate(141.070122, 287.605676)"><g><path d="M 9.625 -12.78125 L 4.890625 -5.828125 L 4.890625 0 L 4.34375 0 L 4.34375 -5.875 L -0.359375 -12.78125 L 0.265625 -12.78125 L 4.640625 -6.359375 L 9.015625 -12.78125 Z M 9.625 -12.78125 "/></g></g></g><g fill="#f8f8f8" fill-opacity="1"><g transform="translate(154.696678, 287.605676)"><g><path d="M 0.578125 0 L 5.765625 -12.78125 L 6.28125 -12.78125 L 11.25 0 L 10.671875 0 L 9.203125 -3.859375 L 2.703125 -3.859375 L 1.15625 0 Z M 2.890625 -4.34375 L 9 -4.34375 L 6.03125 -12.09375 Z M 2.890625 -4.34375 "/></g></g></g><g fill="#f8f8f8" fill-opacity="1"><g transform="translate(170.969226, 287.605676)"><g><path d="M 5.1875 0.125 C 3.875 0.125 2.835938 -0.1875 2.078125 -0.8125 C 1.328125 -1.4375 0.875 -2.421875 0.71875 -3.765625 L 1.265625 -3.8125 C 1.472656 -2.582031 1.878906 -1.707031 2.484375 -1.1875 C 3.097656 -0.664062 4.007812 -0.40625 5.21875 -0.40625 C 6.226562 -0.40625 7.023438 -0.65625 7.609375 -1.15625 C 8.203125 -1.65625 8.5 -2.328125 8.5 -3.171875 C 8.5 -3.765625 8.378906 -4.234375 8.140625 -4.578125 C 7.910156 -4.929688 7.539062 -5.207031 7.03125 -5.40625 C 6.53125 -5.613281 5.878906 -5.796875 5.078125 -5.953125 C 4.398438 -6.085938 3.789062 -6.269531 3.25 -6.5 C 2.71875 -6.726562 2.289062 -7.070312 1.96875 -7.53125 C 1.65625 -7.988281 1.5 -8.628906 1.5 -9.453125 C 1.5 -10.117188 1.65625 -10.71875 1.96875 -11.25 C 2.289062 -11.78125 2.726562 -12.195312 3.28125 -12.5 C 3.84375 -12.800781 4.484375 -12.953125 5.203125 -12.953125 C 6.234375 -12.953125 7.078125 -12.671875 7.734375 -12.109375 C 8.390625 -11.554688 8.785156 -10.726562 8.921875 -9.625 L 8.421875 -9.5625 C 8.265625 -10.550781 7.921875 -11.273438 7.390625 -11.734375 C 6.867188 -12.191406 6.140625 -12.421875 5.203125 -12.421875 C 4.253906 -12.421875 3.488281 -12.148438 2.90625 -11.609375 C 2.332031 -11.066406 2.046875 -10.347656 2.046875 -9.453125 C 2.046875 -8.785156 2.171875 -8.257812 2.421875 -7.875 C 2.679688 -7.488281 3.046875 -7.191406 3.515625 -6.984375 C 3.984375 -6.773438 4.546875 -6.609375 5.203125 -6.484375 C 6.140625 -6.296875 6.890625 -6.070312 7.453125 -5.8125 C 8.015625 -5.5625 8.421875 -5.222656 8.671875 -4.796875 C 8.921875 -4.378906 9.046875 -3.835938 9.046875 -3.171875 C 9.046875 -2.492188 8.882812 -1.910156 8.5625 -1.421875 C 8.238281 -0.929688 7.785156 -0.550781 7.203125 -0.28125 C 6.628906 -0.0078125 5.957031 0.125 5.1875 0.125 Z M 5.1875 0.125 "/></g></g></g><g fill="#f8f8f8" fill-opacity="1"><g transform="translate(185.207781, 287.605676)"><g/></g></g><g fill="#f8f8f8" fill-opacity="1"><g transform="translate(193.470358, 287.605676)"><g><path d="M 0.578125 0 L 5.765625 -12.78125 L 6.28125 -12.78125 L 11.25 0 L 10.671875 0 L 9.203125 -3.859375 L 2.703125 -3.859375 L 1.15625 0 Z M 2.890625 -4.34375 L 9 -4.34375 L 6.03125 -12.09375 Z M 2.890625 -4.34375 "/></g></g></g><g fill="#f8f8f8" fill-opacity="1"><g transform="translate(209.7429, 287.605676)"><g><path d="M 11.171875 -2.40625 C 10.742188 -1.59375 10.144531 -0.96875 9.375 -0.53125 C 8.601562 -0.09375 7.710938 0.125 6.703125 0.125 C 5.578125 0.125 4.609375 -0.125 3.796875 -0.625 C 2.992188 -1.132812 2.375 -1.859375 1.9375 -2.796875 C 1.5 -3.742188 1.28125 -4.867188 1.28125 -6.171875 C 1.28125 -7.515625 1.519531 -8.691406 2 -9.703125 C 2.476562 -10.722656 3.148438 -11.519531 4.015625 -12.09375 C 4.878906 -12.664062 5.878906 -12.953125 7.015625 -12.953125 C 7.929688 -12.953125 8.753906 -12.753906 9.484375 -12.359375 C 10.210938 -11.960938 10.785156 -11.390625 11.203125 -10.640625 L 10.75 -10.265625 C 10.34375 -10.972656 9.835938 -11.503906 9.234375 -11.859375 C 8.628906 -12.222656 7.875 -12.40625 6.96875 -12.40625 C 5.96875 -12.40625 5.082031 -12.140625 4.3125 -11.609375 C 3.539062 -11.078125 2.9375 -10.335938 2.5 -9.390625 C 2.070312 -8.453125 1.859375 -7.367188 1.859375 -6.140625 C 1.859375 -4.335938 2.28125 -2.9375 3.125 -1.9375 C 3.96875 -0.9375 5.144531 -0.4375 6.65625 -0.4375 C 7.65625 -0.4375 8.484375 -0.632812 9.140625 -1.03125 C 9.804688 -1.4375 10.328125 -2.003906 10.703125 -2.734375 Z M 11.171875 -2.40625 "/></g></g></g><g fill="#f8f8f8" fill-opacity="1"><g transform="translate(225.475446, 287.605676)"><g><path d="M 8.296875 -12.3125 L 2.15625 -12.3125 L 2.15625 -6.75 L 8.25 -6.75 L 8.25 -6.28125 L 2.15625 -6.28125 L 2.15625 -0.46875 L 8.609375 -0.46875 L 8.515625 0 L 1.625 0 L 1.625 -12.78125 L 8.296875 -12.78125 Z M 8.296875 -12.3125 "/></g></g></g><g fill="#f8f8f8" fill-opacity="1"><g transform="translate(239.228005, 287.605676)"><g><path d="M 10.0625 -0.640625 L 10.1875 -0.234375 C 10.039062 -0.128906 9.882812 -0.0546875 9.71875 -0.015625 C 9.550781 0.0234375 9.363281 0.046875 9.15625 0.046875 C 8.75 0.046875 8.378906 -0.0390625 8.046875 -0.21875 C 7.710938 -0.40625 7.347656 -0.789062 6.953125 -1.375 L 4.125 -5.46875 C 4 -5.644531 3.8125 -5.820312 3.5625 -6 C 3.3125 -6.1875 2.992188 -6.28125 2.609375 -6.28125 L 2.15625 -6.28125 L 2.15625 0 L 1.625 0 L 1.625 -12.78125 L 4.875 -12.78125 C 6.175781 -12.78125 7.164062 -12.492188 7.84375 -11.921875 C 8.519531 -11.347656 8.859375 -10.578125 8.859375 -9.609375 C 8.859375 -8.597656 8.503906 -7.789062 7.796875 -7.1875 C 7.097656 -6.582031 6.125 -6.28125 4.875 -6.28125 L 3.859375 -6.28125 C 4.046875 -6.207031 4.222656 -6.082031 4.390625 -5.90625 C 4.554688 -5.726562 4.75 -5.484375 4.96875 -5.171875 L 7.21875 -1.859375 C 7.507812 -1.441406 7.742188 -1.128906 7.921875 -0.921875 C 8.109375 -0.710938 8.296875 -0.570312 8.484375 -0.5 C 8.679688 -0.425781 8.925781 -0.390625 9.21875 -0.390625 C 9.382812 -0.390625 9.535156 -0.414062 9.671875 -0.46875 C 9.804688 -0.53125 9.9375 -0.585938 10.0625 -0.640625 Z M 4.828125 -12.296875 L 2.15625 -12.296875 L 2.15625 -6.75 L 4.734375 -6.75 C 5.867188 -6.75 6.742188 -6.988281 7.359375 -7.46875 C 7.984375 -7.945312 8.296875 -8.640625 8.296875 -9.546875 C 8.296875 -10.367188 8.023438 -11.03125 7.484375 -11.53125 C 6.941406 -12.039062 6.054688 -12.296875 4.828125 -12.296875 Z M 4.828125 -12.296875 "/></g></g></g><g fill="#f8f8f8" fill-opacity="1"><g transform="translate(253.376563, 287.605676)"><g><path d="M 6.765625 0.125 C 5.648438 0.125 4.679688 -0.117188 3.859375 -0.609375 C 3.035156 -1.097656 2.398438 -1.8125 1.953125 -2.75 C 1.503906 -3.6875 1.28125 -4.820312 1.28125 -6.15625 C 1.28125 -7.488281 1.535156 -8.664062 2.046875 -9.6875 C 2.554688 -10.71875 3.25 -11.519531 4.125 -12.09375 C 5.007812 -12.664062 6.007812 -12.953125 7.125 -12.953125 C 8.195312 -12.953125 9.128906 -12.6875 9.921875 -12.15625 C 10.722656 -11.632812 11.34375 -10.898438 11.78125 -9.953125 C 12.226562 -9.015625 12.453125 -7.910156 12.453125 -6.640625 C 12.453125 -5.265625 12.207031 -4.066406 11.71875 -3.046875 C 11.226562 -2.035156 10.554688 -1.253906 9.703125 -0.703125 C 8.847656 -0.148438 7.867188 0.125 6.765625 0.125 Z M 6.765625 -0.4375 C 7.773438 -0.4375 8.660156 -0.679688 9.421875 -1.171875 C 10.191406 -1.660156 10.789062 -2.375 11.21875 -3.3125 C 11.65625 -4.25 11.875 -5.382812 11.875 -6.71875 C 11.875 -7.894531 11.675781 -8.90625 11.28125 -9.75 C 10.894531 -10.59375 10.347656 -11.242188 9.640625 -11.703125 C 8.941406 -12.171875 8.109375 -12.40625 7.140625 -12.40625 C 6.109375 -12.40625 5.191406 -12.144531 4.390625 -11.625 C 3.597656 -11.113281 2.976562 -10.382812 2.53125 -9.4375 C 2.082031 -8.5 1.859375 -7.394531 1.859375 -6.125 C 1.859375 -4.28125 2.296875 -2.867188 3.171875 -1.890625 C 4.046875 -0.921875 5.242188 -0.4375 6.765625 -0.4375 Z M 6.765625 -0.4375 "/></g></g></g></svg>