<svg xmlns="http://www.w3.org/2000/svg" xmlns:xlink="http://www.w3.org/1999/xlink" width="500" zoomAndPan="magnify" viewBox="0 0 375 374.999991" height="500" preserveAspectRatio="xMidYMid meet" version="1.0"><defs><g/><clipPath id="4067767b08"><path d="M 169.367188 140.671875 L 206 140.671875 L 206 175.171875 L 169.367188 175.171875 Z M 169.367188 140.671875 " clip-rule="nonzero"/></clipPath></defs><g fill="#f9fafd" fill-opacity="1"><g transform="translate(136.675777, 207.171783)"><g><path d="M 21.804688 -40.398438 C 19.003906 -40.398438 16.269531 -39.304688 13.601562 -37.117188 C 10.902344 -34.894531 8.441406 -31.71875 6.21875 -27.582031 C 4.476562 -24.234375 3.074219 -20.78125 2.015625 -17.261719 C 0.957031 -13.738281 0.339844 -10.628906 0.203125 -7.964844 C 0.0664062 -5.296875 0.476562 -3.589844 1.433594 -2.835938 C 1.675781 -2.632812 2.050781 -2.527344 2.597656 -2.5625 C 3.144531 -2.5625 3.863281 -2.871094 4.714844 -3.519531 C 4.988281 -3.757812 5.125 -3.964844 5.09375 -4.203125 C 5.058594 -4.441406 4.957031 -4.578125 4.75 -4.683594 C 4.546875 -4.785156 4.304688 -4.714844 4 -4.511719 C 3.65625 -4.238281 3.382812 -4.066406 3.179688 -4 C 2.9375 -3.894531 2.800781 -3.894531 2.699219 -3.929688 C 2.597656 -3.964844 2.496094 -4 2.460938 -4.03125 C 1.433594 -4.957031 1.332031 -7.757812 2.1875 -12.371094 C 3.007812 -16.988281 4.75 -21.941406 7.449219 -27.207031 C 8.03125 -28.332031 8.785156 -29.597656 9.707031 -30.929688 C 10.628906 -32.265625 11.65625 -33.5625 12.851562 -34.792969 C 14.046875 -35.988281 15.347656 -37.015625 16.816406 -37.835938 C 18.25 -38.621094 19.789062 -39.03125 21.464844 -39.03125 C 23.105469 -39.03125 24.335938 -38.347656 25.121094 -37.015625 C 25.90625 -35.683594 26.386719 -33.90625 26.488281 -31.75 C 26.589844 -29.5625 26.386719 -27.171875 25.90625 -24.574219 C 25.429688 -21.941406 24.746094 -19.34375 23.824219 -16.746094 C 22.898438 -14.117188 21.839844 -11.722656 20.609375 -9.535156 C 19.378906 -7.347656 18.082031 -5.605469 16.679688 -4.273438 C 15.277344 -2.9375 13.84375 -2.253906 12.441406 -2.253906 C 11.140625 -2.253906 10.183594 -2.800781 9.605469 -3.894531 C 9.023438 -4.988281 8.714844 -6.425781 8.679688 -8.167969 C 8.648438 -9.910156 8.816406 -11.824219 9.195312 -13.875 C 9.570312 -15.894531 10.082031 -17.875 10.730469 -19.824219 C 11.382812 -21.773438 12.066406 -23.480469 12.851562 -24.949219 C 13.601562 -26.421875 14.355469 -27.445312 15.105469 -28.058594 C 15.378906 -28.300781 15.515625 -28.503906 15.484375 -28.742188 C 15.449219 -28.984375 15.347656 -29.121094 15.140625 -29.222656 C 14.9375 -29.324219 14.695312 -29.257812 14.390625 -29.050781 C 13.570312 -28.367188 12.714844 -27.207031 11.859375 -25.601562 C 10.972656 -23.992188 10.183594 -22.113281 9.46875 -19.996094 C 8.75 -17.875 8.167969 -15.722656 7.757812 -13.5 C 7.347656 -11.277344 7.175781 -9.195312 7.28125 -7.3125 C 7.347656 -5.398438 7.757812 -3.863281 8.511719 -2.664062 C 9.261719 -1.46875 10.457031 -0.855469 12.066406 -0.855469 C 13.738281 -0.855469 15.414062 -1.570312 17.019531 -3.042969 C 18.628906 -4.476562 20.132812 -6.355469 21.53125 -8.714844 C 22.898438 -11.074219 24.097656 -13.636719 25.121094 -16.441406 C 26.113281 -19.242188 26.863281 -22.046875 27.375 -24.847656 C 27.855469 -27.648438 28.027344 -30.214844 27.855469 -32.570312 C 27.683594 -34.929688 27.136719 -36.808594 26.179688 -38.246094 C 25.191406 -39.679688 23.753906 -40.398438 21.804688 -40.398438 Z M 21.804688 -40.398438 "/></g></g></g><g fill="#f9fafd" fill-opacity="1"><g transform="translate(165.38511, 207.171783)"><g><path d="M 15.722656 -17.019531 L 15.621094 -16.953125 C 14.527344 -16.132812 13.433594 -15.414062 12.371094 -14.765625 C 11.277344 -14.117188 10.21875 -13.808594 9.226562 -13.808594 C 8.785156 -13.808594 8.476562 -13.945312 8.375 -14.183594 C 8.238281 -14.421875 8.167969 -14.902344 8.167969 -15.550781 C 8.203125 -15.925781 8.167969 -16.304688 8.132812 -16.714844 C 8.066406 -17.089844 7.894531 -17.429688 7.65625 -17.703125 C 7.417969 -17.976562 6.972656 -18.113281 6.390625 -18.113281 C 5.535156 -18.113281 4.613281 -17.773438 3.621094 -17.125 C 2.632812 -16.441406 1.640625 -15.621094 0.648438 -14.664062 C 0.957031 -15.925781 1.402344 -17.703125 1.980469 -19.925781 C 2.5625 -22.148438 3.179688 -24.402344 3.792969 -26.660156 C 4.304688 -28.539062 4.785156 -30.417969 5.296875 -32.230469 C 5.367188 -32.539062 5.296875 -32.742188 5.125 -32.84375 C 4.921875 -32.949219 4.683594 -32.949219 4.441406 -32.84375 C 4.203125 -32.742188 4.03125 -32.539062 3.929688 -32.230469 C 3.417969 -30.417969 2.90625 -28.539062 2.390625 -26.660156 C 1.09375 -21.839844 0.203125 -18.421875 -0.308594 -16.441406 C -0.820312 -14.457031 -1.023438 -13.296875 -0.992188 -12.917969 C -0.957031 -12.613281 -0.785156 -12.476562 -0.476562 -12.441406 C -0.171875 -12.40625 0.101562 -12.507812 0.375 -12.75 C 0.613281 -12.988281 0.886719 -13.191406 1.160156 -13.433594 C 2.085938 -14.285156 2.972656 -15.074219 3.828125 -15.757812 C 4.683594 -16.40625 5.398438 -16.746094 6.015625 -16.746094 C 6.324219 -16.746094 6.527344 -16.644531 6.628906 -16.441406 C 6.734375 -16.199219 6.765625 -15.789062 6.734375 -15.175781 C 6.734375 -14.800781 6.765625 -14.390625 6.835938 -13.980469 C 6.902344 -13.535156 7.074219 -13.191406 7.382812 -12.886719 C 7.691406 -12.578125 8.167969 -12.441406 8.886719 -12.441406 C 10.117188 -12.441406 11.382812 -12.816406 12.644531 -13.535156 C 13.910156 -14.253906 15.140625 -15.074219 16.371094 -15.996094 C 16.644531 -16.199219 16.78125 -16.441406 16.78125 -16.679688 C 16.746094 -16.917969 16.644531 -17.089844 16.472656 -17.191406 C 16.269531 -17.292969 16.03125 -17.226562 15.722656 -17.019531 Z M 15.722656 -17.019531 "/></g></g></g><g fill="#f9fafd" fill-opacity="1"><g transform="translate(180.936005, 207.171783)"><g><path d="M 10.117188 -17.054688 C 8.851562 -16.097656 7.621094 -15.3125 6.460938 -14.730469 C 5.261719 -14.117188 4.03125 -13.808594 2.699219 -13.808594 C 1.878906 -13.808594 1.332031 -14.011719 1.058594 -14.421875 C 0.75 -14.832031 0.71875 -15.3125 0.957031 -15.894531 C 1.128906 -16.371094 1.367188 -16.746094 1.675781 -16.988281 C 1.980469 -17.226562 2.253906 -17.398438 2.527344 -17.464844 C 2.800781 -17.535156 3.007812 -17.535156 3.109375 -17.464844 C 3.210938 -17.398438 3.210938 -17.261719 3.074219 -17.089844 C 2.835938 -16.851562 2.769531 -16.609375 2.835938 -16.40625 C 2.90625 -16.199219 3.042969 -16.0625 3.28125 -16.03125 C 3.519531 -15.996094 3.757812 -16.097656 4 -16.335938 C 4.820312 -17.292969 4.957031 -18.011719 4.441406 -18.492188 C 3.894531 -18.933594 3.109375 -19.003906 2.085938 -18.695312 C 1.058594 -18.355469 0.238281 -17.464844 -0.375 -16.0625 C -0.75 -15.074219 -0.71875 -14.21875 -0.238281 -13.5 C 0.238281 -12.78125 1.09375 -12.441406 2.324219 -12.441406 C 3.894531 -12.441406 5.367188 -12.78125 6.699219 -13.464844 C 8.03125 -14.148438 9.398438 -15.003906 10.765625 -16.03125 C 11.039062 -16.269531 11.175781 -16.472656 11.175781 -16.714844 C 11.140625 -16.953125 11.039062 -17.125 10.867188 -17.226562 C 10.664062 -17.328125 10.425781 -17.261719 10.117188 -17.054688 Z M 10.117188 -17.054688 "/></g></g></g><g fill="#f9fafd" fill-opacity="1"><g transform="translate(191.120983, 207.171783)"><g><path d="M 3.828125 -15.515625 C 3.484375 -15.652344 3.28125 -15.824219 3.179688 -16.0625 C 3.074219 -16.304688 3.042969 -16.507812 3.144531 -16.714844 C 3.246094 -16.953125 3.382812 -17.089844 3.554688 -17.089844 C 3.726562 -17.089844 3.828125 -16.953125 3.929688 -16.714844 C 4 -16.441406 3.964844 -16.03125 3.828125 -15.515625 Z M 10.628906 -16.953125 C 8.851562 -15.722656 7.007812 -15.175781 5.125 -15.277344 C 5.503906 -16.542969 5.503906 -17.398438 5.058594 -17.910156 C 4.613281 -18.421875 4.03125 -18.558594 3.347656 -18.386719 C 2.664062 -18.21875 2.152344 -17.703125 1.8125 -16.851562 C 1.605469 -16.335938 1.605469 -15.824219 1.777344 -15.347656 C 1.949219 -14.832031 2.390625 -14.457031 3.074219 -14.21875 C 2.769531 -13.910156 2.390625 -13.738281 1.980469 -13.738281 C 1.332031 -13.738281 1.023438 -14.046875 0.992188 -14.628906 C 0.957031 -15.210938 1.09375 -15.859375 1.402344 -16.507812 C 1.503906 -16.816406 1.503906 -17.054688 1.332031 -17.191406 C 1.160156 -17.328125 0.957031 -17.363281 0.71875 -17.328125 C 0.476562 -17.261719 0.273438 -17.089844 0.101562 -16.78125 C -0.476562 -15.378906 -0.613281 -14.285156 -0.238281 -13.5 C 0.136719 -12.714844 0.75 -12.339844 1.605469 -12.339844 C 2.632812 -12.339844 3.589844 -12.886719 4.441406 -13.945312 C 5.46875 -13.84375 6.597656 -13.945312 7.859375 -14.253906 C 9.089844 -14.558594 10.253906 -15.140625 11.347656 -15.960938 C 11.585938 -16.199219 11.722656 -16.40625 11.6875 -16.644531 C 11.65625 -16.882812 11.550781 -17.019531 11.347656 -17.125 C 11.140625 -17.226562 10.902344 -17.15625 10.628906 -16.953125 Z M 10.628906 -16.953125 "/></g></g></g><g fill="#f9fafd" fill-opacity="1"><g transform="translate(201.750278, 207.171783)"><g><path d="M 3.007812 -9.84375 C 1.914062 -8.886719 0.992188 -8.339844 0.238281 -8.203125 C -0.511719 -8.066406 -0.886719 -8.132812 -0.921875 -8.441406 C -0.886719 -8.785156 -0.648438 -9.160156 -0.203125 -9.570312 C 0.238281 -9.980469 0.71875 -10.390625 1.265625 -10.765625 C 1.777344 -11.140625 2.222656 -11.449219 2.597656 -11.65625 C 2.800781 -11.414062 2.972656 -11.109375 3.144531 -10.765625 C 3.316406 -10.425781 3.246094 -10.117188 3.007812 -9.84375 Z M 12.234375 -17.292969 C 8.851562 -16.132812 5.84375 -14.832031 3.179688 -13.363281 C 2.9375 -13.601562 2.734375 -13.84375 2.496094 -14.082031 C 2.050781 -14.492188 1.742188 -14.867188 1.503906 -15.175781 C 1.265625 -15.550781 1.160156 -15.894531 1.230469 -16.167969 C 1.296875 -16.441406 1.433594 -16.679688 1.605469 -16.851562 C 1.980469 -17.261719 2.496094 -17.601562 3.144531 -17.875 C 3.757812 -18.148438 4.304688 -18.285156 4.785156 -18.285156 C 5.230469 -18.285156 5.433594 -18.082031 5.367188 -17.671875 C 5.296875 -17.363281 5.367188 -17.191406 5.570312 -17.089844 C 5.742188 -16.988281 5.980469 -16.988281 6.21875 -17.089844 C 6.460938 -17.191406 6.628906 -17.363281 6.734375 -17.671875 C 6.972656 -18.660156 6.699219 -19.277344 5.980469 -19.515625 C 5.261719 -19.753906 4.375 -19.6875 3.316406 -19.3125 C 2.253906 -18.933594 1.332031 -18.355469 0.582031 -17.535156 C -0.339844 -16.40625 -0.476562 -15.277344 0.238281 -14.21875 C 0.546875 -13.84375 0.886719 -13.433594 1.332031 -12.988281 C 1.503906 -12.851562 1.640625 -12.714844 1.777344 -12.578125 C 0.886719 -12.066406 0 -11.414062 -0.855469 -10.628906 C -1.742188 -9.84375 -2.253906 -9.023438 -2.359375 -8.167969 C -2.359375 -7.175781 -1.742188 -6.734375 -0.476562 -6.765625 C 0.75 -6.800781 2.1875 -7.519531 3.828125 -8.953125 C 4.410156 -9.535156 4.683594 -10.117188 4.648438 -10.730469 C 4.613281 -11.3125 4.375 -11.894531 4 -12.40625 C 6.492188 -13.738281 9.296875 -14.9375 12.339844 -15.996094 C 12.644531 -16.097656 12.851562 -16.304688 12.953125 -16.542969 C 13.023438 -16.78125 12.988281 -17.019531 12.886719 -17.191406 C 12.75 -17.363281 12.542969 -17.398438 12.234375 -17.292969 Z M 12.234375 -17.292969 "/></g></g></g><g fill="#f9fafd" fill-opacity="1"><g transform="translate(213.7125, 207.171783)"><g><path d="M 1.367188 -19.140625 L 1.296875 -19.140625 C 1.128906 -19.175781 0.992188 -19.242188 0.921875 -19.414062 C 0.820312 -19.550781 0.820312 -19.722656 0.886719 -19.890625 C 0.921875 -20.027344 0.957031 -20.164062 0.992188 -20.269531 L 1.023438 -20.269531 C 1.09375 -20.542969 1.195312 -20.847656 1.367188 -21.15625 C 1.46875 -21.328125 1.605469 -21.5 1.777344 -21.601562 C 1.949219 -21.703125 2.117188 -21.738281 2.289062 -21.703125 C 2.460938 -21.667969 2.597656 -21.566406 2.664062 -21.429688 C 2.734375 -21.257812 2.734375 -21.089844 2.632812 -20.917969 L 2.359375 -20.164062 L 2.222656 -19.753906 C 2.152344 -19.585938 2.050781 -19.414062 1.878906 -19.3125 C 1.707031 -19.207031 1.539062 -19.140625 1.367188 -19.140625 Z M 8.066406 -16.882812 C 5.707031 -14.730469 3.792969 -13.707031 2.359375 -13.84375 C 1.640625 -13.945312 1.230469 -14.285156 1.160156 -14.9375 C 1.09375 -15.585938 1.195312 -16.371094 1.503906 -17.328125 C 1.570312 -17.703125 1.503906 -17.945312 1.332031 -18.046875 C 1.160156 -18.148438 0.921875 -18.148438 0.683594 -18.046875 C 0.410156 -17.945312 0.203125 -17.703125 0.101562 -17.328125 C -0.171875 -16.40625 -0.308594 -15.550781 -0.308594 -14.832031 C -0.308594 -14.117188 -0.101562 -13.535156 0.273438 -13.089844 C 0.648438 -12.644531 1.332031 -12.441406 2.289062 -12.441406 C 4.101562 -12.441406 6.324219 -13.636719 8.886719 -15.996094 C 9.125 -16.234375 9.226562 -16.472656 9.195312 -16.714844 C 9.160156 -16.917969 9.023438 -17.054688 8.816406 -17.125 C 8.578125 -17.191406 8.339844 -17.125 8.066406 -16.882812 Z M 8.066406 -16.882812 "/></g></g></g><g fill="#f9fafd" fill-opacity="1"><g transform="translate(221.778456, 207.171783)"><g><path d="M 24.265625 -29.460938 L 4.886719 -29.460938 C 5.46875 -31.683594 6.117188 -34.074219 6.800781 -36.671875 C 6.871094 -36.980469 6.800781 -37.1875 6.628906 -37.289062 C 6.425781 -37.390625 6.1875 -37.390625 5.945312 -37.289062 C 5.707031 -37.1875 5.535156 -36.980469 5.433594 -36.671875 C 4.714844 -34.074219 4.066406 -31.683594 3.484375 -29.460938 L -5.640625 -29.460938 C -5.945312 -29.460938 -6.152344 -29.359375 -6.289062 -29.121094 C -6.460938 -28.878906 -6.527344 -28.675781 -6.492188 -28.4375 C -6.460938 -28.195312 -6.324219 -28.09375 -6.082031 -28.09375 L 3.109375 -28.09375 C 2.460938 -25.601562 1.84375 -23.34375 1.296875 -21.328125 C -0.921875 -13.328125 -2.222656 -8.304688 -2.597656 -6.289062 C -2.769531 -5.367188 -2.800781 -4.613281 -2.699219 -4.03125 C -2.597656 -3.417969 -2.152344 -3.109375 -1.367188 -3.109375 C -1.058594 -3.109375 -0.820312 -3.210938 -0.648438 -3.453125 C -0.476562 -3.691406 -0.445312 -3.929688 -0.476562 -4.167969 C -0.511719 -4.410156 -0.683594 -4.511719 -0.992188 -4.511719 C -1.09375 -4.511719 -1.195312 -4.546875 -1.265625 -4.648438 C -1.332031 -4.75 -1.367188 -4.921875 -1.367188 -5.195312 C -1.367188 -5.46875 -1.296875 -5.878906 -1.195312 -6.425781 C -0.71875 -8.648438 0.582031 -13.636719 2.664062 -21.328125 L 4.511719 -28.09375 L 23.925781 -28.09375 C 24.234375 -28.09375 24.472656 -28.195312 24.644531 -28.4375 C 24.8125 -28.675781 24.847656 -28.878906 24.8125 -29.121094 C 24.78125 -29.359375 24.574219 -29.460938 24.265625 -29.460938 Z M 24.265625 -29.460938 "/></g></g></g><g fill="#f9fafd" fill-opacity="1"><g transform="translate(226.563345, 207.171783)"><g><path d="M 11.757812 -16.882812 C 9.363281 -14.730469 7.449219 -13.707031 6.015625 -13.84375 C 5.195312 -13.945312 4.785156 -14.355469 4.785156 -15.039062 C 4.75 -15.6875 4.886719 -16.472656 5.160156 -17.328125 L 5.230469 -17.535156 C 5.261719 -17.839844 5.230469 -18.046875 5.058594 -18.148438 C 4.886719 -18.25 4.683594 -18.25 4.441406 -18.183594 C 4.203125 -18.113281 4.03125 -17.945312 3.894531 -17.671875 C 3.316406 -16.609375 2.800781 -15.789062 2.390625 -15.242188 C 1.980469 -14.664062 1.675781 -14.285156 1.433594 -14.117188 C 1.195312 -13.910156 1.023438 -13.808594 0.957031 -13.808594 C 0.921875 -13.808594 0.855469 -13.808594 0.820312 -13.84375 C 0.75 -13.84375 0.683594 -13.875 0.648438 -13.945312 C 0.613281 -14.011719 0.582031 -14.117188 0.582031 -14.285156 C 0.582031 -14.628906 0.683594 -15.003906 0.886719 -15.449219 C 1.058594 -15.859375 1.265625 -16.199219 1.503906 -16.472656 C 1.742188 -16.746094 1.914062 -16.816406 2.085938 -16.679688 C 2.253906 -16.507812 2.496094 -16.472656 2.734375 -16.578125 C 2.972656 -16.679688 3.179688 -16.851562 3.316406 -17.089844 C 3.417969 -17.328125 3.417969 -17.535156 3.246094 -17.738281 C 2.734375 -18.25 2.152344 -18.320312 1.503906 -17.976562 C 0.855469 -17.636719 0.308594 -17.089844 -0.136719 -16.304688 C -0.613281 -15.515625 -0.855469 -14.695312 -0.855469 -13.875 C -0.785156 -12.917969 -0.308594 -12.441406 0.582031 -12.441406 C 1.433594 -12.441406 2.359375 -13.125 3.347656 -14.457031 C 3.453125 -13.738281 3.726562 -13.226562 4.167969 -12.917969 C 4.613281 -12.613281 5.195312 -12.441406 5.945312 -12.441406 C 7.757812 -12.441406 9.980469 -13.636719 12.578125 -15.996094 C 12.816406 -16.234375 12.917969 -16.472656 12.886719 -16.714844 C 12.816406 -16.917969 12.679688 -17.054688 12.476562 -17.125 C 12.234375 -17.191406 11.996094 -17.125 11.757812 -16.882812 Z M 11.757812 -16.882812 "/></g></g></g><path stroke-linecap="butt" transform="matrix(0.75, 0.000632681, -0.000632681, 0.75, 76.506525, 134.704796)" fill="none" stroke-linejoin="miter" d="M 0.00213647 0.49777 L 296.356436 0.497773 " stroke="#f9fafd" stroke-width="1" stroke-opacity="1" stroke-miterlimit="4"/><path stroke-linecap="butt" transform="matrix(0.75, 0, 0, 0.75, 76.507382, 236.545194)" fill="none" stroke-linejoin="miter" d="M 0.000574165 0.502241 L 296.35476 0.502241 " stroke="#f9fafd" stroke-width="1" stroke-opacity="1" stroke-miterlimit="4"/><path stroke-linecap="butt" transform="matrix(-0.0109357, 0.74992, -0.74992, -0.0109357, 77.252973, 135.277052)" fill="none" stroke-linejoin="miter" d="M 0.00245358 0.498773 L 25.760395 0.4982 " stroke="#f9fafd" stroke-width="1" stroke-opacity="1" stroke-miterlimit="4"/><path stroke-linecap="butt" transform="matrix(0, 0.75, -0.75, 0, 298.771038, 135.270562)" fill="none" stroke-linejoin="miter" d="M -0.00137476 0.50201 L 46.009045 0.50201 " stroke="#f9fafd" stroke-width="1" stroke-opacity="1" stroke-miterlimit="4"/><path stroke-linecap="butt" transform="matrix(0.000000001309, 0.75, -0.75, 0.000000001309, 76.972821, 211.840796)" fill="none" stroke-linejoin="miter" d="M -0.00126925 0.50022 L 33.9154 0.50022 " stroke="#f9fafd" stroke-width="1" stroke-opacity="1" stroke-miterlimit="4"/><path stroke-linecap="butt" transform="matrix(0.000000001309, 0.75, -0.75, 0.000000001309, 299.518814, 204.045147)" fill="none" stroke-linejoin="miter" d="M 0.00230346 0.499043 L 44.309598 0.499043 " stroke="#f9fafd" stroke-width="1" stroke-opacity="1" stroke-miterlimit="4"/><g clip-path="url(#4067767b08)"><path fill="#eff0ec" d="M 169.390625 146.726562 C 169.371094 145.644531 169.429688 144.578125 169.859375 143.566406 C 170.449219 142.179688 171.429688 141.238281 172.914062 140.851562 C 173.589844 140.675781 174.265625 140.671875 174.941406 140.816406 C 175.835938 141.003906 176.675781 141.335938 177.457031 141.816406 C 178.234375 142.292969 178.941406 142.855469 179.597656 143.484375 C 180.667969 144.507812 181.59375 145.648438 182.445312 146.847656 C 184.222656 149.351562 185.625 152.054688 186.773438 154.894531 C 187.003906 155.46875 187.253906 156.039062 187.496094 156.609375 C 187.558594 156.753906 187.8125 156.757812 187.90625 156.613281 C 188.152344 156.234375 188.394531 155.855469 188.628906 155.472656 C 189.910156 153.332031 191.339844 151.300781 192.992188 149.425781 C 194.082031 148.191406 195.257812 147.046875 196.574219 146.050781 C 197.527344 145.332031 198.535156 144.707031 199.644531 144.246094 C 200.601562 143.847656 201.589844 143.640625 202.632812 143.71875 C 204.238281 143.839844 205.515625 144.941406 205.859375 146.515625 C 206.117188 147.703125 206 148.878906 205.703125 150.039062 C 205.449219 151.023438 205.070312 151.96875 204.640625 152.890625 C 203.972656 154.328125 203.1875 155.703125 202.367188 157.054688 C 200.691406 159.8125 198.835938 162.449219 196.847656 164.992188 C 194.824219 167.578125 192.707031 170.085938 190.527344 172.542969 C 190.117188 173.011719 189.6875 173.464844 189.242188 173.898438 C 188.957031 174.171875 188.644531 174.425781 188.316406 174.640625 C 187.660156 175.078125 186.949219 175.171875 186.210938 174.859375 C 185.898438 174.726562 185.585938 174.578125 185.316406 174.382812 C 184.902344 174.085938 184.5 173.765625 184.140625 173.40625 C 183.539062 172.808594 182.945312 172.199219 182.394531 171.550781 C 179.863281 168.574219 177.496094 165.472656 175.347656 162.207031 C 173.574219 159.503906 172.078125 156.65625 170.941406 153.628906 C 170.402344 152.203125 169.964844 150.746094 169.660156 149.246094 C 169.492188 148.410156 169.414062 147.570312 169.390625 146.726562 Z M 170.488281 146.664062 C 170.507812 146.863281 170.535156 147.199219 170.570312 147.535156 C 170.78125 149.457031 171.300781 151.296875 171.96875 153.101562 C 173.152344 156.292969 174.753906 159.273438 176.644531 162.097656 C 178.628906 165.058594 180.792969 167.886719 183.09375 170.609375 C 183.636719 171.257812 184.226562 171.871094 184.824219 172.472656 C 185.179688 172.832031 185.574219 173.164062 185.988281 173.457031 C 186.8125 174.046875 187.398438 174.019531 188.128906 173.367188 C 188.550781 172.988281 188.949219 172.585938 189.324219 172.164062 C 192.453125 168.660156 195.476562 165.070312 198.214844 161.253906 C 199.792969 159.046875 201.289062 156.785156 202.574219 154.394531 C 203.109375 153.402344 203.582031 152.375 204.050781 151.351562 C 204.40625 150.578125 204.601562 149.75 204.773438 148.921875 C 204.902344 148.308594 204.9375 147.683594 204.8125 147.070312 C 204.5 145.527344 203.585938 144.78125 201.902344 144.851562 C 201.789062 144.855469 201.679688 144.882812 201.566406 144.898438 C 200.886719 144.988281 200.242188 145.207031 199.625 145.496094 C 198.800781 145.886719 198.039062 146.375 197.316406 146.921875 C 196 147.917969 194.828125 149.0625 193.746094 150.300781 C 191.804688 152.527344 190.171875 154.964844 188.769531 157.554688 C 188.582031 157.902344 188.390625 158.246094 188.175781 158.578125 C 187.910156 158.996094 187.257812 158.992188 187.039062 158.570312 C 186.832031 158.167969 186.660156 157.75 186.488281 157.335938 C 185.929688 155.980469 185.40625 154.605469 184.808594 153.269531 C 183.71875 150.839844 182.367188 148.558594 180.726562 146.453125 C 179.992188 145.515625 179.195312 144.636719 178.300781 143.851562 C 177.617188 143.25 176.871094 142.742188 176.039062 142.359375 C 175.25 141.996094 174.417969 141.871094 173.550781 141.933594 C 172.839844 141.984375 172.246094 142.277344 171.738281 142.765625 C 171.28125 143.207031 170.96875 143.75 170.804688 144.355469 C 170.617188 145.0625 170.472656 145.785156 170.488281 146.664062 Z M 170.488281 146.664062 " fill-opacity="1" fill-rule="nonzero"/></g><g fill="#f9fafd" fill-opacity="1"><g transform="translate(147.100805, 215.254836)"><g><path d="M 1.59375 -4.1875 C 1.582031 -4.164062 1.570312 -4.109375 1.5625 -4.015625 C 1.550781 -3.929688 1.546875 -3.804688 1.546875 -3.640625 C 1.546875 -3.484375 1.546875 -3.28125 1.546875 -3.03125 L 1.546875 -0.125 C 1.546875 0.238281 1.492188 0.546875 1.390625 0.796875 C 1.296875 1.054688 1.15625 1.253906 0.96875 1.390625 C 0.78125 1.523438 0.554688 1.59375 0.296875 1.59375 C 0.046875 1.59375 -0.164062 1.535156 -0.34375 1.421875 C -0.519531 1.316406 -0.609375 1.1875 -0.609375 1.03125 C -0.609375 0.945312 -0.578125 0.878906 -0.515625 0.828125 C -0.460938 0.773438 -0.390625 0.75 -0.296875 0.75 C -0.234375 0.75 -0.164062 0.765625 -0.09375 0.796875 C -0.0195312 0.828125 0.046875 0.878906 0.109375 0.953125 L 0.515625 1.359375 L 0.25 1.265625 C 0.394531 1.285156 0.515625 1.265625 0.609375 1.203125 C 0.703125 1.140625 0.769531 1.023438 0.8125 0.859375 C 0.851562 0.703125 0.875 0.488281 0.875 0.21875 L 0.875 -3.03125 C 0.875 -3.257812 0.875 -3.453125 0.875 -3.609375 C 0.875 -3.765625 0.867188 -3.890625 0.859375 -3.984375 C 0.859375 -4.085938 0.851562 -4.15625 0.84375 -4.1875 L 0.3125 -4.296875 L 0.328125 -4.59375 L 2.046875 -4.59375 L 2.0625 -4.296875 Z M 1.59375 -4.1875 "/></g></g></g><g fill="#f9fafd" fill-opacity="1"><g transform="translate(151.923057, 215.254836)"><g><path d="M 2.734375 0.078125 C 2.273438 0.078125 1.867188 -0.0195312 1.515625 -0.21875 C 1.171875 -0.425781 0.898438 -0.707031 0.703125 -1.0625 C 0.503906 -1.414062 0.40625 -1.820312 0.40625 -2.28125 C 0.40625 -2.738281 0.503906 -3.144531 0.703125 -3.5 C 0.898438 -3.863281 1.175781 -4.144531 1.53125 -4.34375 C 1.894531 -4.550781 2.300781 -4.65625 2.75 -4.65625 C 3.1875 -4.65625 3.570312 -4.554688 3.90625 -4.359375 C 4.238281 -4.160156 4.5 -3.882812 4.6875 -3.53125 C 4.875 -3.1875 4.96875 -2.785156 4.96875 -2.328125 C 4.96875 -1.984375 4.90625 -1.664062 4.78125 -1.375 C 4.664062 -1.082031 4.503906 -0.828125 4.296875 -0.609375 C 4.085938 -0.390625 3.847656 -0.21875 3.578125 -0.09375 C 3.316406 0.0195312 3.035156 0.078125 2.734375 0.078125 Z M 2.796875 -0.359375 C 3.085938 -0.359375 3.332031 -0.429688 3.53125 -0.578125 C 3.738281 -0.722656 3.898438 -0.925781 4.015625 -1.1875 C 4.128906 -1.457031 4.1875 -1.773438 4.1875 -2.140625 C 4.1875 -2.566406 4.117188 -2.9375 3.984375 -3.25 C 3.859375 -3.570312 3.679688 -3.820312 3.453125 -4 C 3.222656 -4.175781 2.957031 -4.265625 2.65625 -4.265625 C 2.207031 -4.265625 1.851562 -4.097656 1.59375 -3.765625 C 1.34375 -3.441406 1.21875 -2.992188 1.21875 -2.421875 C 1.21875 -2.015625 1.285156 -1.65625 1.421875 -1.34375 C 1.554688 -1.039062 1.742188 -0.800781 1.984375 -0.625 C 2.222656 -0.445312 2.492188 -0.359375 2.796875 -0.359375 Z M 2.796875 -0.359375 "/></g></g></g><g fill="#f9fafd" fill-opacity="1"><g transform="translate(159.683038, 215.254836)"><g><path d="M 3.84375 -4.1875 L 2.25 -1.703125 L 2.4375 -2.234375 L 2.4375 -1.5 C 2.4375 -1.300781 2.4375 -1.132812 2.4375 -1 C 2.445312 -0.863281 2.453125 -0.753906 2.453125 -0.671875 C 2.453125 -0.597656 2.453125 -0.539062 2.453125 -0.5 C 2.460938 -0.457031 2.46875 -0.425781 2.46875 -0.40625 L 3.015625 -0.3125 L 3 0 L 1.21875 0 L 1.203125 -0.3125 L 1.75 -0.40625 C 1.75 -0.425781 1.75 -0.457031 1.75 -0.5 C 1.757812 -0.539062 1.765625 -0.597656 1.765625 -0.671875 C 1.773438 -0.753906 1.78125 -0.863281 1.78125 -1 C 1.78125 -1.132812 1.78125 -1.300781 1.78125 -1.5 L 1.78125 -2.234375 L 1.9375 -1.703125 L 0.390625 -4.1875 L 0 -4.296875 L 0.015625 -4.59375 L 1.640625 -4.59375 L 1.65625 -4.296875 L 1.1875 -4.1875 L 2.328125 -2.34375 L 2.21875 -2.34375 L 3.328125 -4.1875 L 2.78125 -4.296875 L 2.796875 -4.59375 L 4.21875 -4.59375 L 4.234375 -4.296875 Z M 3.84375 -4.1875 "/></g></g></g><g fill="#f9fafd" fill-opacity="1"><g transform="translate(166.310118, 215.254836)"><g><path d="M 0.390625 0 L 0.375 -0.296875 L 0.84375 -0.40625 C 0.851562 -0.4375 0.859375 -0.5 0.859375 -0.59375 C 0.867188 -0.6875 0.875 -0.8125 0.875 -0.96875 C 0.875 -1.132812 0.875 -1.332031 0.875 -1.5625 L 0.875 -3.03125 C 0.875 -3.257812 0.875 -3.457031 0.875 -3.625 C 0.875 -3.789062 0.867188 -3.921875 0.859375 -4.015625 C 0.859375 -4.109375 0.851562 -4.164062 0.84375 -4.1875 L 0.375 -4.296875 L 0.390625 -4.59375 L 2.046875 -4.59375 L 2.0625 -4.296875 L 1.59375 -4.1875 C 1.582031 -4.164062 1.570312 -4.113281 1.5625 -4.03125 C 1.550781 -3.945312 1.546875 -3.820312 1.546875 -3.65625 C 1.546875 -3.5 1.546875 -3.289062 1.546875 -3.03125 L 1.546875 -1.5625 C 1.546875 -1.3125 1.546875 -1.101562 1.546875 -0.9375 C 1.546875 -0.78125 1.550781 -0.65625 1.5625 -0.5625 C 1.570312 -0.476562 1.582031 -0.425781 1.59375 -0.40625 L 2.0625 -0.296875 L 2.046875 0 Z M 0.390625 0 "/></g></g></g><g fill="#f9fafd" fill-opacity="1"><g transform="translate(171.13237, 215.254836)"><g><path d="M 4.046875 -4.625 L 4.21875 -3.359375 L 3.875 -3.3125 L 3.546875 -4.203125 C 3.503906 -4.210938 3.457031 -4.21875 3.40625 -4.21875 C 3.351562 -4.21875 3.304688 -4.21875 3.265625 -4.21875 L 2.984375 -4.21875 C 2.929688 -4.21875 2.859375 -4.21875 2.765625 -4.21875 C 2.679688 -4.21875 2.601562 -4.21875 2.53125 -4.21875 C 2.53125 -4.175781 2.523438 -4.078125 2.515625 -3.921875 C 2.515625 -3.765625 2.515625 -3.582031 2.515625 -3.375 C 2.515625 -3.175781 2.515625 -2.984375 2.515625 -2.796875 L 2.515625 -1.75 C 2.515625 -1.414062 2.515625 -1.128906 2.515625 -0.890625 C 2.523438 -0.648438 2.53125 -0.488281 2.53125 -0.40625 L 3.203125 -0.3125 L 3.171875 0 L 1.1875 0 L 1.171875 -0.3125 L 1.828125 -0.40625 C 1.828125 -0.488281 1.828125 -0.648438 1.828125 -0.890625 C 1.835938 -1.128906 1.84375 -1.414062 1.84375 -1.75 L 1.84375 -2.796875 C 1.84375 -2.984375 1.84375 -3.175781 1.84375 -3.375 C 1.84375 -3.582031 1.84375 -3.765625 1.84375 -3.921875 C 1.84375 -4.078125 1.835938 -4.175781 1.828125 -4.21875 C 1.765625 -4.21875 1.6875 -4.21875 1.59375 -4.21875 C 1.507812 -4.21875 1.441406 -4.21875 1.390625 -4.21875 L 1.078125 -4.21875 C 1.035156 -4.21875 0.988281 -4.21875 0.9375 -4.21875 C 0.894531 -4.21875 0.847656 -4.210938 0.796875 -4.203125 L 0.484375 -3.3125 L 0.125 -3.359375 L 0.296875 -4.625 C 0.359375 -4.613281 0.421875 -4.609375 0.484375 -4.609375 C 0.546875 -4.609375 0.609375 -4.601562 0.671875 -4.59375 C 0.742188 -4.59375 0.8125 -4.59375 0.875 -4.59375 C 0.9375 -4.59375 1 -4.59375 1.0625 -4.59375 L 3.296875 -4.59375 C 3.347656 -4.59375 3.40625 -4.59375 3.46875 -4.59375 C 3.539062 -4.59375 3.609375 -4.59375 3.671875 -4.59375 C 3.734375 -4.601562 3.796875 -4.609375 3.859375 -4.609375 C 3.921875 -4.609375 3.984375 -4.613281 4.046875 -4.625 Z M 4.046875 -4.625 "/></g></g></g><g fill="#f9fafd" fill-opacity="1"><g transform="translate(177.884459, 215.254836)"><g><path d="M 0.03125 0 L 0.015625 -0.296875 L 0.390625 -0.40625 L 2 -4.453125 L 2.453125 -4.734375 L 4.15625 -0.40625 L 4.546875 -0.296875 L 4.53125 0 L 2.953125 0 L 2.9375 -0.296875 L 3.40625 -0.40625 L 2.953125 -1.5625 L 2.859375 -1.8125 L 2.015625 -3.9375 L 2.1875 -4.03125 L 1.375 -1.8125 L 1.296875 -1.578125 L 0.875 -0.40625 L 1.359375 -0.296875 L 1.34375 0 Z M 1.125 -1.453125 L 1.125 -1.859375 C 1.21875 -1.859375 1.347656 -1.851562 1.515625 -1.84375 C 1.691406 -1.84375 1.90625 -1.84375 2.15625 -1.84375 C 2.40625 -1.84375 2.613281 -1.84375 2.78125 -1.84375 C 2.957031 -1.851562 3.09375 -1.859375 3.1875 -1.859375 L 3.1875 -1.453125 C 3.007812 -1.453125 2.832031 -1.453125 2.65625 -1.453125 C 2.488281 -1.460938 2.320312 -1.46875 2.15625 -1.46875 C 2 -1.46875 1.835938 -1.460938 1.671875 -1.453125 C 1.503906 -1.453125 1.320312 -1.453125 1.125 -1.453125 Z M 1.125 -1.453125 "/></g></g></g><g fill="#f9fafd" fill-opacity="1"><g transform="translate(184.831875, 215.254836)"><g><path d="M 1.765625 0.078125 C 1.535156 0.078125 1.300781 0.046875 1.0625 -0.015625 C 0.820312 -0.078125 0.625 -0.148438 0.46875 -0.234375 L 0.421875 -1.25 L 0.765625 -1.28125 L 0.984375 -0.578125 C 1.109375 -0.492188 1.242188 -0.429688 1.390625 -0.390625 C 1.546875 -0.347656 1.707031 -0.328125 1.875 -0.328125 C 2.132812 -0.328125 2.34375 -0.390625 2.5 -0.515625 C 2.65625 -0.640625 2.734375 -0.804688 2.734375 -1.015625 C 2.734375 -1.203125 2.675781 -1.351562 2.5625 -1.46875 C 2.457031 -1.59375 2.316406 -1.703125 2.140625 -1.796875 C 1.960938 -1.890625 1.773438 -1.976562 1.578125 -2.0625 C 1.390625 -2.144531 1.207031 -2.242188 1.03125 -2.359375 C 0.863281 -2.472656 0.722656 -2.609375 0.609375 -2.765625 C 0.492188 -2.929688 0.4375 -3.140625 0.4375 -3.390625 C 0.4375 -3.640625 0.507812 -3.859375 0.65625 -4.046875 C 0.800781 -4.242188 1 -4.394531 1.25 -4.5 C 1.5 -4.613281 1.785156 -4.671875 2.109375 -4.671875 C 2.242188 -4.671875 2.375 -4.660156 2.5 -4.640625 C 2.625 -4.628906 2.738281 -4.609375 2.84375 -4.578125 C 2.957031 -4.554688 3.0625 -4.523438 3.15625 -4.484375 L 3.21875 -3.515625 L 2.875 -3.484375 L 2.65625 -4.140625 C 2.488281 -4.242188 2.273438 -4.296875 2.015625 -4.296875 C 1.753906 -4.296875 1.539062 -4.226562 1.375 -4.09375 C 1.21875 -3.96875 1.140625 -3.800781 1.140625 -3.59375 C 1.140625 -3.40625 1.195312 -3.242188 1.3125 -3.109375 C 1.425781 -2.984375 1.566406 -2.875 1.734375 -2.78125 C 1.910156 -2.6875 2.097656 -2.597656 2.296875 -2.515625 C 2.492188 -2.429688 2.675781 -2.332031 2.84375 -2.21875 C 3.019531 -2.113281 3.164062 -1.976562 3.28125 -1.8125 C 3.394531 -1.65625 3.453125 -1.460938 3.453125 -1.234375 C 3.453125 -0.984375 3.378906 -0.757812 3.234375 -0.5625 C 3.085938 -0.363281 2.882812 -0.207031 2.625 -0.09375 C 2.375 0.0195312 2.085938 0.078125 1.765625 0.078125 Z M 1.765625 0.078125 "/></g></g></g><g fill="#f9fafd" fill-opacity="1"><g transform="translate(190.974542, 215.254836)"><g/></g></g><g fill="#f9fafd" fill-opacity="1"><g transform="translate(194.874845, 215.254836)"><g><path d="M 0.03125 0 L 0.015625 -0.296875 L 0.390625 -0.40625 L 2 -4.453125 L 2.453125 -4.734375 L 4.15625 -0.40625 L 4.546875 -0.296875 L 4.53125 0 L 2.953125 0 L 2.9375 -0.296875 L 3.40625 -0.40625 L 2.953125 -1.5625 L 2.859375 -1.8125 L 2.015625 -3.9375 L 2.1875 -4.03125 L 1.375 -1.8125 L 1.296875 -1.578125 L 0.875 -0.40625 L 1.359375 -0.296875 L 1.34375 0 Z M 1.125 -1.453125 L 1.125 -1.859375 C 1.21875 -1.859375 1.347656 -1.851562 1.515625 -1.84375 C 1.691406 -1.84375 1.90625 -1.84375 2.15625 -1.84375 C 2.40625 -1.84375 2.613281 -1.84375 2.78125 -1.84375 C 2.957031 -1.851562 3.09375 -1.859375 3.1875 -1.859375 L 3.1875 -1.453125 C 3.007812 -1.453125 2.832031 -1.453125 2.65625 -1.453125 C 2.488281 -1.460938 2.320312 -1.46875 2.15625 -1.46875 C 2 -1.46875 1.835938 -1.460938 1.671875 -1.453125 C 1.503906 -1.453125 1.320312 -1.453125 1.125 -1.453125 Z M 1.125 -1.453125 "/></g></g></g><g fill="#f9fafd" fill-opacity="1"><g transform="translate(201.822262, 215.254836)"><g><path d="M 2.875 0.078125 C 2.425781 0.078125 2.015625 -0.0078125 1.640625 -0.1875 C 1.265625 -0.363281 0.960938 -0.625 0.734375 -0.96875 C 0.515625 -1.320312 0.40625 -1.753906 0.40625 -2.265625 C 0.40625 -2.585938 0.460938 -2.894531 0.578125 -3.1875 C 0.691406 -3.476562 0.859375 -3.734375 1.078125 -3.953125 C 1.304688 -4.171875 1.578125 -4.34375 1.890625 -4.46875 C 2.210938 -4.59375 2.578125 -4.65625 2.984375 -4.65625 C 3.191406 -4.65625 3.414062 -4.632812 3.65625 -4.59375 C 3.894531 -4.550781 4.109375 -4.492188 4.296875 -4.421875 L 4.359375 -3.34375 L 4 -3.3125 L 3.765625 -4.0625 C 3.671875 -4.125 3.539062 -4.171875 3.375 -4.203125 C 3.21875 -4.242188 3.0625 -4.265625 2.90625 -4.265625 C 2.519531 -4.265625 2.203125 -4.175781 1.953125 -4 C 1.703125 -3.832031 1.519531 -3.609375 1.40625 -3.328125 C 1.289062 -3.046875 1.234375 -2.738281 1.234375 -2.40625 C 1.234375 -1.957031 1.304688 -1.578125 1.453125 -1.265625 C 1.609375 -0.960938 1.816406 -0.734375 2.078125 -0.578125 C 2.347656 -0.421875 2.640625 -0.34375 2.953125 -0.34375 C 3.117188 -0.34375 3.269531 -0.359375 3.40625 -0.390625 C 3.539062 -0.429688 3.671875 -0.488281 3.796875 -0.5625 L 4.140625 -1.296875 L 4.5 -1.265625 L 4.28125 -0.28125 C 4.101562 -0.1875 3.890625 -0.101562 3.640625 -0.03125 C 3.398438 0.0390625 3.144531 0.078125 2.875 0.078125 Z M 2.875 0.078125 "/></g></g></g><g fill="#f9fafd" fill-opacity="1"><g transform="translate(208.941567, 215.254836)"><g><path d="M 3.796875 0.046875 C 3.648438 0.0234375 3.515625 0.0078125 3.390625 0 C 3.273438 0 3.164062 0 3.0625 0 L 0.390625 0 L 0.359375 -0.296875 L 0.84375 -0.40625 C 0.851562 -0.4375 0.859375 -0.5 0.859375 -0.59375 C 0.867188 -0.6875 0.875 -0.8125 0.875 -0.96875 C 0.875 -1.132812 0.875 -1.332031 0.875 -1.5625 L 0.875 -3.03125 C 0.875 -3.257812 0.875 -3.457031 0.875 -3.625 C 0.875 -3.789062 0.867188 -3.921875 0.859375 -4.015625 C 0.859375 -4.109375 0.851562 -4.164062 0.84375 -4.1875 L 0.359375 -4.296875 L 0.390625 -4.59375 L 2.890625 -4.59375 C 2.960938 -4.59375 3.039062 -4.59375 3.125 -4.59375 C 3.207031 -4.59375 3.296875 -4.59375 3.390625 -4.59375 C 3.484375 -4.601562 3.578125 -4.613281 3.671875 -4.625 L 3.828125 -3.59375 L 3.484375 -3.53125 L 3.21875 -4.1875 C 3.175781 -4.195312 3.128906 -4.203125 3.078125 -4.203125 C 3.023438 -4.210938 2.972656 -4.21875 2.921875 -4.21875 L 2.03125 -4.21875 C 1.9375 -4.21875 1.847656 -4.210938 1.765625 -4.203125 C 1.691406 -4.203125 1.617188 -4.195312 1.546875 -4.1875 C 1.546875 -4.164062 1.546875 -4.109375 1.546875 -4.015625 C 1.546875 -3.921875 1.539062 -3.8125 1.53125 -3.6875 C 1.53125 -3.5625 1.53125 -3.4375 1.53125 -3.3125 L 1.53125 -1.203125 C 1.53125 -1.097656 1.53125 -0.988281 1.53125 -0.875 C 1.539062 -0.769531 1.546875 -0.675781 1.546875 -0.59375 C 1.546875 -0.519531 1.546875 -0.460938 1.546875 -0.421875 C 1.628906 -0.421875 1.707031 -0.414062 1.78125 -0.40625 C 1.863281 -0.40625 1.953125 -0.40625 2.046875 -0.40625 L 2.8125 -0.40625 C 2.925781 -0.40625 3.019531 -0.40625 3.09375 -0.40625 C 3.164062 -0.40625 3.222656 -0.40625 3.265625 -0.40625 C 3.304688 -0.414062 3.335938 -0.425781 3.359375 -0.4375 L 3.765625 -1.171875 L 4.125 -1.109375 Z M 2.9375 -1.609375 L 2.84375 -2.140625 C 2.8125 -2.148438 2.765625 -2.15625 2.703125 -2.15625 C 2.640625 -2.164062 2.566406 -2.171875 2.484375 -2.171875 L 1.890625 -2.171875 C 1.816406 -2.171875 1.738281 -2.164062 1.65625 -2.15625 C 1.582031 -2.15625 1.503906 -2.148438 1.421875 -2.140625 L 1.421875 -2.578125 C 1.503906 -2.566406 1.582031 -2.5625 1.65625 -2.5625 C 1.738281 -2.5625 1.816406 -2.5625 1.890625 -2.5625 L 2.484375 -2.5625 C 2.566406 -2.5625 2.640625 -2.5625 2.703125 -2.5625 C 2.765625 -2.5625 2.8125 -2.566406 2.84375 -2.578125 L 2.9375 -3.125 L 3.265625 -3.125 L 3.265625 -1.609375 Z M 2.9375 -1.609375 "/></g></g></g><g fill="#f9fafd" fill-opacity="1"><g transform="translate(215.685842, 215.254836)"><g><path d="M 0.40625 0 L 0.390625 -0.296875 L 0.875 -0.421875 C 0.875 -0.453125 0.875 -0.503906 0.875 -0.578125 C 0.875 -0.660156 0.875 -0.753906 0.875 -0.859375 C 0.875 -0.960938 0.875 -1.070312 0.875 -1.1875 C 0.882812 -1.3125 0.890625 -1.4375 0.890625 -1.5625 L 0.890625 -3.03125 C 0.890625 -3.269531 0.882812 -3.46875 0.875 -3.625 C 0.875 -3.789062 0.867188 -3.921875 0.859375 -4.015625 C 0.859375 -4.109375 0.859375 -4.164062 0.859375 -4.1875 L 0.375 -4.296875 L 0.390625 -4.59375 L 2.109375 -4.59375 C 2.597656 -4.59375 2.96875 -4.492188 3.21875 -4.296875 C 3.476562 -4.109375 3.609375 -3.832031 3.609375 -3.46875 C 3.609375 -3.207031 3.535156 -2.976562 3.390625 -2.78125 C 3.253906 -2.582031 3.0625 -2.425781 2.8125 -2.3125 C 2.5625 -2.195312 2.273438 -2.140625 1.953125 -2.140625 L 1.453125 -2.140625 L 1.453125 -2.484375 L 1.890625 -2.484375 C 2.210938 -2.484375 2.460938 -2.5625 2.640625 -2.71875 C 2.828125 -2.882812 2.921875 -3.113281 2.921875 -3.40625 C 2.921875 -3.675781 2.84375 -3.882812 2.6875 -4.03125 C 2.53125 -4.175781 2.304688 -4.25 2.015625 -4.25 L 1.5625 -4.25 C 1.550781 -4.238281 1.546875 -4.21875 1.546875 -4.1875 C 1.546875 -4.15625 1.546875 -4.101562 1.546875 -4.03125 C 1.546875 -3.957031 1.546875 -3.847656 1.546875 -3.703125 C 1.546875 -3.566406 1.546875 -3.378906 1.546875 -3.140625 L 1.546875 -1.5625 C 1.546875 -1.332031 1.546875 -1.140625 1.546875 -0.984375 C 1.546875 -0.835938 1.550781 -0.71875 1.5625 -0.625 C 1.570312 -0.539062 1.578125 -0.472656 1.578125 -0.421875 L 2.046875 -0.296875 L 2.015625 0 Z M 4.109375 0.078125 C 3.878906 0.078125 3.675781 0.0351562 3.5 -0.046875 C 3.320312 -0.140625 3.148438 -0.285156 2.984375 -0.484375 C 2.828125 -0.691406 2.648438 -0.960938 2.453125 -1.296875 L 1.921875 -2.265625 L 2.5 -2.40625 L 3.34375 -1.15625 C 3.488281 -0.945312 3.617188 -0.773438 3.734375 -0.640625 C 3.859375 -0.515625 3.976562 -0.421875 4.09375 -0.359375 C 4.207031 -0.296875 4.332031 -0.253906 4.46875 -0.234375 L 4.453125 0.046875 C 4.398438 0.0546875 4.34375 0.0625 4.28125 0.0625 C 4.226562 0.0703125 4.171875 0.078125 4.109375 0.078125 Z M 4.109375 0.078125 "/></g></g></g><g fill="#f9fafd" fill-opacity="1"><g transform="translate(222.516062, 215.254836)"><g><path d="M 2.734375 0.078125 C 2.273438 0.078125 1.867188 -0.0195312 1.515625 -0.21875 C 1.171875 -0.425781 0.898438 -0.707031 0.703125 -1.0625 C 0.503906 -1.414062 0.40625 -1.820312 0.40625 -2.28125 C 0.40625 -2.738281 0.503906 -3.144531 0.703125 -3.5 C 0.898438 -3.863281 1.175781 -4.144531 1.53125 -4.34375 C 1.894531 -4.550781 2.300781 -4.65625 2.75 -4.65625 C 3.1875 -4.65625 3.570312 -4.554688 3.90625 -4.359375 C 4.238281 -4.160156 4.5 -3.882812 4.6875 -3.53125 C 4.875 -3.1875 4.96875 -2.785156 4.96875 -2.328125 C 4.96875 -1.984375 4.90625 -1.664062 4.78125 -1.375 C 4.664062 -1.082031 4.503906 -0.828125 4.296875 -0.609375 C 4.085938 -0.390625 3.847656 -0.21875 3.578125 -0.09375 C 3.316406 0.0195312 3.035156 0.078125 2.734375 0.078125 Z M 2.796875 -0.359375 C 3.085938 -0.359375 3.332031 -0.429688 3.53125 -0.578125 C 3.738281 -0.722656 3.898438 -0.925781 4.015625 -1.1875 C 4.128906 -1.457031 4.1875 -1.773438 4.1875 -2.140625 C 4.1875 -2.566406 4.117188 -2.9375 3.984375 -3.25 C 3.859375 -3.570312 3.679688 -3.820312 3.453125 -4 C 3.222656 -4.175781 2.957031 -4.265625 2.65625 -4.265625 C 2.207031 -4.265625 1.851562 -4.097656 1.59375 -3.765625 C 1.34375 -3.441406 1.21875 -2.992188 1.21875 -2.421875 C 1.21875 -2.015625 1.285156 -1.65625 1.421875 -1.34375 C 1.554688 -1.039062 1.742188 -0.800781 1.984375 -0.625 C 2.222656 -0.445312 2.492188 -0.359375 2.796875 -0.359375 Z M 2.796875 -0.359375 "/></g></g></g></svg>